<?xml version="1.0" encoding="utf-8"?>
<!-- Generator: Adobe Illustrator 22.0.0, SVG Export Plug-In . SVG Version: 6.00 Build 0)  -->
<svg version="1.1" id="Layer_1" xmlns="http://www.w3.org/2000/svg" xmlns:xlink="http://www.w3.org/1999/xlink" x="0px" y="0px"
	 viewBox="0 0 91.3 70.7" style="enable-background:new 0 0 91.3 70.7;" xml:space="preserve">
<style type="text/css">
	.st0{fill:#FFFFFF;}
	.st1{fill:none;}
	.st2{clip-path:url(#SVGID_2_);fill:#FFFFFF;}
	.st3{clip-path:url(#SVGID_4_);fill:#FFFFFF;}
	.st4{clip-path:url(#SVGID_6_);fill:#FFFFFF;}
	.st5{clip-path:url(#SVGID_8_);fill:#FFFFFF;}
</style>
<path class="st0" d="M11.9,41.4c-1,0.6-2.2,0.9-3.7,0.9c-1.1,0-2.1-0.2-3-0.6c-0.9-0.4-1.6-1-2.2-1.7c-0.1-0.1-0.2-0.3-0.3-0.4
	C2.8,40,3,40.3,3.2,40.5c0.6,0.7,1.3,1.3,2.2,1.7c0.9,0.4,1.9,0.6,3,0.6c1.5,0,2.7-0.3,3.7-0.9c1-0.6,1.8-1.5,2.5-2.8l-0.4-0.3
	C13.6,40,12.8,40.8,11.9,41.4"/>
<path class="st0" d="M13.8,31.5h-0.4c0,0.2,0.1,0.3,0.1,0.5h0.6c0-0.7,0-1.3-0.1-2c0-0.6-0.2-1.1-0.5-1.5c0,0-0.1-0.1-0.1-0.1
	c0.2,0.3,0.3,0.7,0.3,1.2C13.8,30.2,13.8,30.9,13.8,31.5"/>
<path class="st0" d="M8.8,27.2c-0.7,0-1.3,0.1-1.8,0.3c-0.6,0.2-1.1,0.6-1.5,1.2C5,29.3,4.7,30,4.4,31c-0.2,0.9-0.4,2.1-0.4,3.5
	c0,0.9,0.1,1.7,0.3,2.6c0.2,0.8,0.4,1.6,0.8,2.2c0.1,0.2,0.2,0.3,0.3,0.4c-0.4-0.6-0.6-1.3-0.8-2.1c-0.2-0.8-0.3-1.7-0.3-2.6
	c0-1.4,0.1-2.6,0.4-3.5c0.2-0.9,0.6-1.7,1-2.2c0.4-0.6,0.9-1,1.5-1.2c0.6-0.2,1.2-0.3,1.8-0.3c1.2,0,2.1,0.4,2.9,1.1
	c0.1,0.1,0.2,0.3,0.3,0.4c-0.2-0.3-0.4-0.6-0.7-0.9C10.9,27.6,10,27.2,8.8,27.2"/>
<path class="st0" d="M25.9,40.2c-0.2,0.5-0.4,0.9-0.6,1.2c-0.3,0.3-0.7,0.4-1.3,0.4h-7.6v0.5h8c0.6,0,1-0.1,1.3-0.4
	c0.3-0.3,0.5-0.7,0.6-1.2l0.6-1.8l-0.4-0.2L25.9,40.2z"/>
<path class="st0" d="M25.7,28.5v2h-0.3c0,0.2,0,0.3,0,0.5H26v-2c0-0.2,0-0.5-0.1-0.7c0-0.2-0.1-0.4-0.3-0.6c0,0-0.1-0.1-0.1-0.1
	c0,0.1,0.1,0.1,0.1,0.2C25.6,28,25.7,28.2,25.7,28.5"/>
<path class="st0" d="M14.7,27.3v0.5h0.2c0.4,0,0.7,0.1,1,0.3c0,0,0-0.1,0-0.1C15.6,27.5,15.2,27.3,14.7,27.3"/>
<polygon class="st0" points="18.9,34.5 18.9,40.8 19.2,40.8 19.2,35 24.8,35 24.8,33.9 24.4,33.9 24.4,34.5 "/>
<path class="st0" d="M22.3,27.7h-3.5v5.8h0.3v-5.3h3.5c0.9,0,1.5,0.2,2,0.6c0,0,0.1,0.1,0.1,0.1c-0.1-0.2-0.2-0.4-0.4-0.6
	C23.8,27.9,23.2,27.7,22.3,27.7"/>
<path class="st0" d="M27.6,27.5c-0.2-0.1-0.4-0.1-0.7-0.1v0.5H27c0.4,0,0.7,0.1,0.9,0.2c0.2,0.1,0.4,0.2,0.5,0.3
	c-0.1-0.1-0.1-0.3-0.2-0.4C28.1,27.7,27.9,27.6,27.6,27.5"/>
<polygon class="st0" points="39.8,41.9 38.8,41.9 29.7,30.4 29.7,41.9 28.9,41.9 28.9,42.4 30,42.4 30,30.9 39.1,42.4 40.1,42.4 
	40.1,27.1 39.8,27.1 "/>
<path class="st0" d="M44.4,27.7c-0.8,0-1.4,0.2-1.8,0.6c-0.4,0.4-0.7,1.1-0.7,2.2h-0.3v0.5h0.6c0-1,0.2-1.8,0.7-2.2
	c0.4-0.4,1-0.6,1.8-0.6H46v-0.5H44.4z"/>
<path class="st0" d="M58.1,28.1c0.1,0,0.3-0.1,0.5-0.1c0.2,0,0.3,0,0.5,0c0.3,0,0.6,0.1,1,0.2c0.3,0.1,0.6,0.3,0.9,0.5
	c0.1,0.1,0.1,0.1,0.2,0.2c-0.1-0.3-0.3-0.5-0.5-0.7c-0.3-0.3-0.6-0.4-0.9-0.5c-0.3-0.1-0.7-0.2-1-0.2c-0.2,0-0.3,0-0.5,0
	c-0.2,0-0.3,0-0.5,0.1c-0.2,0-0.3,0.1-0.4,0.1V34h0.3v-5.8C57.8,28.2,58,28.2,58.1,28.1"/>
<path class="st0" d="M64.6,30.9c0,0.6-0.1,1.1-0.3,1.6c-0.2,0.4-0.5,0.8-0.8,1.1c-0.3,0.3-0.7,0.5-1.1,0.7c-0.4,0.2-0.8,0.3-1.2,0.4
	l2.3,4c0.2,0.4,0.4,0.7,0.6,1c-0.1-0.2-0.2-0.3-0.3-0.5l-2.3-4c0.4-0.1,0.8-0.3,1.2-0.4c0.4-0.2,0.8-0.4,1.1-0.7
	c0.3-0.3,0.6-0.7,0.8-1.1c0.2-0.4,0.3-1,0.3-1.6c0-0.6-0.1-1.2-0.3-1.6c-0.1-0.3-0.3-0.6-0.5-0.9c0.1,0.1,0.1,0.3,0.2,0.4
	C64.5,29.7,64.6,30.2,64.6,30.9"/>
<polygon class="st0" points="57.4,34.9 57.4,41.9 54.9,41.9 54.9,42.4 57.7,42.4 57.7,35.4 58.5,35.4 58.2,34.9 "/>
<path class="st0" d="M65.5,42c-0.1,0-0.1,0-0.2,0c-0.3,0-0.6,0.1-0.9,0.1c-0.4,0-0.7-0.1-1.1-0.2c-0.4-0.1-0.7-0.3-1-0.6
	c-0.3-0.3-0.7-0.6-1-1c-0.1-0.1-0.2-0.2-0.3-0.4c0.2,0.3,0.4,0.6,0.6,0.9c0.3,0.4,0.7,0.8,1,1c0.3,0.3,0.7,0.4,1,0.6
	c0.4,0.1,0.7,0.2,1.1,0.2c0.3,0,0.6,0,0.9-0.1c0.3,0,0.5-0.1,0.6-0.2h-0.9L65.5,42z"/>
<path class="st0" d="M54.3,28.3c-0.1-0.3-0.4-0.5-0.7-0.6c-0.1,0-0.3-0.1-0.4-0.1c0,0-0.3,0-0.3,0h-4.1v14.2h-2.5v0.5h2.8V28.1
	l4.3,0c0.4,0,0.7,0.1,1,0.3C54.3,28.4,54.3,28.3,54.3,28.3"/>
<path class="st0" d="M79.4,41.8c-0.1,0-0.3,0.1-0.5,0.1c-0.2,0-0.4,0-0.5,0c-0.3,0-0.7,0-1.1-0.1c-0.4-0.1-0.8-0.2-1.2-0.4
	c-0.4-0.2-0.7-0.5-1.1-0.9c0-0.1-0.1-0.1-0.1-0.2c0.1,0.2,0.3,0.5,0.5,0.7c0.3,0.4,0.7,0.7,1.1,0.9c0.4,0.2,0.8,0.3,1.2,0.4
	c0.4,0.1,0.8,0.1,1.1,0.1c0.2,0,0.3,0,0.5,0c0.2,0,0.4,0,0.5-0.1v-0.6c-0.1,0-0.2,0-0.3-0.1V41.8z"/>
<polygon class="st0" points="70.9,30.6 68.4,36.6 68.9,36.6 71.1,31.2 "/>
<path class="st0" d="M67.9,37.7l-1.7,4.1c0,0,0.1,0,0.1,0v0.6h0.2l1.8-4.2h5.6l-0.2-0.5H67.9z"/>
<path class="st0" d="M77.9,40.3c-0.1-0.3-0.3-0.5-0.4-0.9l-4.8-12.3h-0.1L77.2,39C77.4,39.5,77.7,39.9,77.9,40.3"/>
<path class="st0" d="M66.2,41.7l-0.1,0.1H66c-0.1,0-0.2,0.1-0.5,0.1l-0.1,0.4h0.9v-0.6C66.3,41.8,66.2,41.8,66.2,41.7"/>
<polygon class="st0" points="90.7,41.3 90.7,41.9 80.8,41.9 80.8,42.4 91,42.4 91,41.3 "/>
<path class="st0" d="M79.1,27.3v0.5h0.2c0.4,0,0.7,0.1,1,0.3c0,0,0-0.1,0-0.1C80,27.5,79.6,27.3,79.1,27.3"/>
<path class="st0" d="M83.2,29.6v11.2h0.3V30.1c0-0.6,0-1-0.1-1.4c-0.1-0.4-0.2-0.7-0.3-0.9c-0.1-0.1-0.1-0.1-0.2-0.2
	c0.1,0.2,0.1,0.4,0.2,0.6C83.2,28.6,83.2,29.1,83.2,29.6"/>
<path class="st0" d="M9.5,57.4C8.8,57.8,7.8,58,6.7,58c-0.9,0-1.6-0.2-2.3-0.5c-0.7-0.3-1.2-0.7-1.7-1.3c0,0,0,0,0-0.1
	c0.1,0.2,0.2,0.3,0.4,0.5c0.5,0.5,1,1,1.7,1.3c0.7,0.3,1.4,0.5,2.3,0.5c1.1,0,2.1-0.2,2.8-0.7c0.7-0.5,1.4-1.2,1.9-2.2l-0.4-0.3
	C10.8,56.2,10.2,56.9,9.5,57.4"/>
<path class="st0" d="M7.2,46.5c-0.5,0-1,0.1-1.4,0.3c-0.4,0.2-0.8,0.5-1.1,0.9c-0.3,0.4-0.6,1-0.8,1.7c-0.2,0.7-0.3,1.6-0.3,2.7
	c0,0.7,0.1,1.3,0.2,1.9c0.1,0.6,0.3,1.2,0.6,1.7c0.1,0.2,0.2,0.3,0.4,0.5c0,0,0-0.1-0.1-0.1c-0.3-0.5-0.5-1-0.6-1.7
	c-0.1-0.6-0.2-1.3-0.2-1.9c0-1.1,0.1-2,0.3-2.7c0.2-0.7,0.4-1.3,0.8-1.7c0.3-0.4,0.7-0.7,1.1-0.9C6.5,47,7,46.9,7.5,46.9
	c0.9,0,1.6,0.3,2.2,0.9c0,0,0.1,0.1,0.1,0.2c-0.1-0.2-0.3-0.4-0.4-0.6C8.8,46.8,8.1,46.5,7.2,46.5"/>
<path class="st0" d="M11,49.8h-0.3c0,0.1,0.1,0.3,0.1,0.4h0.5c0-0.5,0-1,0-1.5c0-0.5-0.2-0.9-0.4-1.2c0-0.1-0.1-0.1-0.2-0.2
	c0.1,0.3,0.2,0.6,0.2,0.9C11,48.8,11,49.3,11,49.8"/>
<polygon class="st0" points="15.2,52.1 15.2,56.9 15.5,56.9 15.5,52.5 19.7,52.5 19.7,51.7 19.4,51.7 19.4,52.1 "/>
<path class="st0" d="M17.8,46.9h-2.6v4.4h0.3v-4h2.6c0.6,0,1.1,0.2,1.5,0.5c-0.1-0.2-0.2-0.3-0.3-0.4C19,47,18.5,46.9,17.8,46.9"/>
<path class="st0" d="M12,46.6V47h0.2c0.3,0,0.5,0.1,0.7,0.2c0,0,0-0.1,0-0.1C12.7,46.8,12.4,46.6,12,46.6"/>
<path class="st0" d="M20.5,56.5c-0.1,0.4-0.3,0.7-0.5,0.9c-0.2,0.2-0.5,0.3-1,0.3h-5.8v0.4h6.1c0.4,0,0.8-0.1,1-0.3
	c0.2-0.2,0.3-0.5,0.5-0.9l0.5-1.4l-0.4-0.2L20.5,56.5z"/>
<path class="st0" d="M20.3,47.5V49h-0.2c0,0.1,0,0.3,0,0.4h0.5v-1.5c0-0.2,0-0.3-0.1-0.5c0-0.2-0.1-0.3-0.2-0.4
	c0-0.1-0.1-0.1-0.2-0.2c0,0.1,0.1,0.1,0.1,0.2C20.3,47.1,20.3,47.3,20.3,47.5"/>
<path class="st0" d="M31.3,57.7c-0.1,0-0.2,0.1-0.5,0.1c-0.2,0-0.4,0.1-0.6,0.1c-0.3,0-0.6,0-0.8-0.1c-0.3-0.1-0.5-0.2-0.8-0.4
	c-0.2-0.2-0.5-0.4-0.7-0.7c0.1,0.1,0.2,0.2,0.3,0.3c0.3,0.3,0.5,0.6,0.8,0.8c0.3,0.2,0.5,0.3,0.8,0.4c0.3,0.1,0.5,0.1,0.8,0.1
	c0.2,0,0.4,0,0.6-0.1c0.2,0,0.4-0.1,0.5-0.1v-0.4c-0.1,0-0.2-0.1-0.3-0.1V57.7z"/>
<path class="st0" d="M30.2,49.3c0,0.5-0.1,0.9-0.2,1.2c-0.2,0.3-0.4,0.6-0.6,0.8c-0.3,0.2-0.5,0.4-0.9,0.6c-0.3,0.1-0.6,0.3-0.9,0.3
	l1.7,3.1c0.2,0.4,0.4,0.7,0.6,0.9c0,0,0.1,0.1,0.1,0.1c-0.1-0.2-0.2-0.4-0.4-0.6l-1.7-3.1c0.3-0.1,0.6-0.2,0.9-0.3
	c0.3-0.1,0.6-0.3,0.9-0.6c0.3-0.2,0.5-0.5,0.6-0.8c0.2-0.3,0.2-0.7,0.2-1.2c0-0.5-0.1-0.9-0.2-1.2c-0.1-0.3-0.3-0.6-0.5-0.8
	c0.1,0.1,0.1,0.2,0.2,0.4C30.1,48.4,30.2,48.8,30.2,49.3"/>
<path class="st0" d="M25.3,47.3c0.1,0,0.2,0,0.3-0.1c0.1,0,0.3,0,0.4,0c0.2,0,0.5,0,0.7,0.1s0.5,0.2,0.7,0.4c0,0,0,0,0,0.1
	c-0.1-0.2-0.2-0.3-0.4-0.5c-0.2-0.2-0.4-0.3-0.7-0.4c-0.3-0.1-0.5-0.1-0.7-0.1c-0.1,0-0.3,0-0.4,0c-0.1,0-0.2,0-0.3,0.1
	c-0.1,0-0.2,0-0.3,0.1v4.8H25v-4.4C25.1,47.3,25.2,47.3,25.3,47.3"/>
<path class="st0" d="M21.5,46.6V47h0.2c0.3,0,0.5,0.1,0.7,0.2c0,0,0-0.1,0-0.1C22.2,46.8,21.9,46.6,21.5,46.6"/>
<polygon class="st0" points="24.7,52.4 24.7,57.7 22.9,57.7 22.9,58.1 25,58.1 25,52.8 25.6,52.8 25.4,52.4 "/>
<path class="st0" d="M40.9,46.6c0,0-0.1,0-0.1,0h-0.1l-4.5,11.3h-0.5l0.2,0.4h0.7L41,47h-0.1V46.6z"/>
<path class="st0" d="M30.4,46.4v0.3c0.3,0,0.6,0.2,0.8,0.4c-0.1-0.1-0.2-0.3-0.3-0.4C30.8,46.6,30.6,46.4,30.4,46.4"/>
<path class="st0" d="M36.6,54.7l0.1-0.2l-2.4-6c-0.2-0.5-0.4-0.9-0.7-1.2c0,0,0,0,0,0c0.2,0.2,0.3,0.5,0.4,0.8L36.6,54.7z"/>
<path class="st0" d="M49.2,47.5V49H49c0,0.1,0,0.3,0,0.4h0.5v-1.5c0-0.2,0-0.3-0.1-0.5c0-0.2-0.1-0.3-0.2-0.4c0-0.1-0.1-0.1-0.2-0.2
	c0,0.1,0,0.1,0.1,0.2C49.2,47.1,49.2,47.3,49.2,47.5"/>
<polygon class="st0" points="44.1,52.1 44.1,56.9 44.4,56.9 44.4,52.5 48.6,52.5 48.6,51.7 48.3,51.7 48.3,52.1 "/>
<path class="st0" d="M49.4,56.5c-0.1,0.4-0.3,0.7-0.5,0.9c-0.2,0.2-0.5,0.3-1,0.3h-5.8v0.4h6.1c0.4,0,0.8-0.1,1-0.3
	c0.2-0.2,0.3-0.5,0.5-0.9l0.5-1.4l-0.4-0.2L49.4,56.5z"/>
<path class="st0" d="M46.7,46.9h-2.6v4.4h0.3v-4H47c0.6,0,1.1,0.2,1.5,0.5c-0.1-0.2-0.2-0.3-0.3-0.4C47.9,47,47.4,46.9,46.7,46.9"/>
<path class="st0" d="M41.1,46.6L41,47h0.1c0.3,0,0.5,0.1,0.7,0.2c0,0,0-0.1,0-0.1C41.6,46.8,41.4,46.7,41.1,46.6"/>
<path class="st0" d="M40.9,46.6V47H41l0.1-0.4C41.1,46.6,41,46.6,40.9,46.6"/>
<path class="st0" d="M59.9,49.8h-0.3c0,0.1,0.1,0.3,0.1,0.4h0.5c0-0.5,0-1,0-1.5c0-0.5-0.2-0.9-0.4-1.2c0-0.1-0.1-0.1-0.2-0.2
	c0.1,0.3,0.2,0.6,0.2,0.9C59.9,48.8,59.9,49.3,59.9,49.8"/>
<path class="st0" d="M58.4,57.4c-0.7,0.5-1.7,0.7-2.8,0.7c-0.9,0-1.6-0.2-2.3-0.5c-0.7-0.3-1.2-0.7-1.7-1.3c0,0,0,0,0-0.1
	c0.1,0.2,0.2,0.3,0.4,0.5c0.5,0.5,1,1,1.7,1.3c0.7,0.3,1.4,0.5,2.3,0.5c1.1,0,2.1-0.2,2.8-0.7c0.7-0.5,1.4-1.2,1.9-2.2l-0.4-0.3
	C59.7,56.2,59.1,56.9,58.4,57.4"/>
<path class="st0" d="M56.1,46.5c-0.5,0-1,0.1-1.4,0.3c-0.4,0.2-0.8,0.5-1.1,0.9c-0.3,0.4-0.6,1-0.8,1.7c-0.2,0.7-0.3,1.6-0.3,2.7
	c0,0.7,0.1,1.3,0.2,1.9c0.1,0.6,0.3,1.2,0.6,1.7c0.1,0.2,0.2,0.3,0.4,0.5c0,0,0-0.1-0.1-0.1c-0.3-0.5-0.5-1-0.6-1.7
	c-0.1-0.6-0.2-1.3-0.2-1.9c0-1.1,0.1-2,0.3-2.7c0.2-0.7,0.4-1.3,0.8-1.7c0.3-0.4,0.7-0.7,1.1-0.9c0.4-0.2,0.9-0.3,1.4-0.3
	c0.9,0,1.6,0.3,2.2,0.9c0,0,0.1,0.1,0.1,0.2c-0.1-0.2-0.3-0.4-0.4-0.6C57.7,46.8,57,46.5,56.1,46.5"/>
<path class="st0" d="M60.6,46.6V47h0.2c0.3,0,0.5,0.1,0.7,0.2c0,0,0-0.1,0-0.1C61.3,46.8,61,46.6,60.6,46.6"/>
<polygon class="st0" points="63.7,52.1 63.7,56.9 64,56.9 64,52.5 68.3,52.5 68.3,51.7 68,51.7 68,52.1 "/>
<path class="st0" d="M68.9,47.5V49h-0.2c0,0.1,0,0.3,0,0.4h0.5v-1.5c0-0.2,0-0.3-0.1-0.5c0-0.2-0.1-0.3-0.2-0.4
	c0-0.1-0.1-0.1-0.2-0.2c0,0.1,0.1,0.1,0.1,0.2C68.9,47.1,68.9,47.3,68.9,47.5"/>
<path class="st0" d="M69.1,56.5c-0.1,0.4-0.3,0.7-0.5,0.9c-0.2,0.2-0.5,0.3-1,0.3h-5.8v0.4H68c0.4,0,0.8-0.1,1-0.3
	c0.2-0.2,0.3-0.5,0.5-0.9l0.5-1.4l-0.4-0.2L69.1,56.5z"/>
<path class="st0" d="M66.4,46.9h-2.6v4.4H64v-4h2.6c0.6,0,1.1,0.2,1.5,0.5c-0.1-0.2-0.2-0.3-0.3-0.4C67.5,47,67,46.9,66.4,46.9"/>
<polygon class="st0" points="73.3,52.4 73.3,57.7 71.4,57.7 71.4,58.1 73.6,58.1 73.6,52.8 74.2,52.8 73.9,52.4 "/>
<path class="st0" d="M79.6,57.8c-0.1,0-0.1,0-0.2,0c-0.2,0-0.4,0.1-0.6,0.1c-0.3,0-0.6,0-0.8-0.1c-0.3-0.1-0.5-0.2-0.8-0.4
	c-0.2-0.2-0.5-0.4-0.7-0.7c0.1,0.1,0.2,0.2,0.3,0.3c0.3,0.3,0.5,0.6,0.8,0.8c0.3,0.2,0.5,0.3,0.8,0.4c0.3,0.1,0.5,0.1,0.8,0.1
	c0.2,0,0.4,0,0.6-0.1c0.2,0,0.4-0.1,0.5-0.1h-0.7L79.6,57.8z"/>
<path class="st0" d="M73.9,47.3c0.1,0,0.2,0,0.3-0.1c0.1,0,0.3,0,0.4,0c0.2,0,0.5,0,0.7,0.1c0.3,0.1,0.5,0.2,0.7,0.4c0,0,0,0,0,0.1
	c-0.1-0.2-0.2-0.3-0.3-0.5c-0.2-0.2-0.4-0.3-0.7-0.4c-0.3-0.1-0.5-0.1-0.7-0.1c-0.1,0-0.3,0-0.4,0c-0.1,0-0.2,0-0.3,0.1
	c-0.1,0-0.2,0-0.3,0.1v4.8h0.3v-4.4C73.7,47.3,73.8,47.3,73.9,47.3"/>
<path class="st0" d="M70.1,46.6V47h0.2c0.3,0,0.5,0.1,0.7,0.2c0,0,0-0.1,0-0.1C70.8,46.8,70.5,46.6,70.1,46.6"/>
<path class="st0" d="M78.8,49.3c0,0.5-0.1,0.9-0.2,1.2c-0.2,0.3-0.4,0.6-0.6,0.8c-0.3,0.2-0.5,0.4-0.9,0.6c-0.3,0.1-0.6,0.3-0.9,0.3
	l1.7,3.1c0.2,0.4,0.4,0.7,0.6,0.9c0,0,0.1,0.1,0.1,0.1c-0.1-0.2-0.2-0.4-0.4-0.6l-1.7-3.1c0.3-0.1,0.6-0.2,0.9-0.3
	c0.3-0.1,0.6-0.3,0.9-0.6c0.3-0.2,0.5-0.5,0.6-0.8c0.2-0.3,0.2-0.7,0.2-1.2c0-0.5-0.1-0.9-0.2-1.2c-0.1-0.3-0.3-0.6-0.5-0.8
	c0.1,0.1,0.1,0.2,0.2,0.4C78.7,48.4,78.8,48.8,78.8,49.3"/>
<path class="st0" d="M89.1,56.7c-0.1-0.2-0.3-0.5-0.4-0.8L85,46.5h-0.1l3.5,9C88.6,56,88.8,56.4,89.1,56.7"/>
<path class="st0" d="M81.3,54.5L80,57.6c0.1,0,0.1,0,0.2,0v0.4h0.1l1.4-3.2h4.2l-0.2-0.4H81.3z"/>
<path class="st0" d="M90.1,57.6v0.1c-0.1,0-0.2,0-0.4,0.1c-0.2,0-0.3,0-0.4,0c-0.3,0-0.5,0-0.8-0.1c-0.3-0.1-0.6-0.2-0.9-0.3
	c-0.3-0.1-0.5-0.4-0.8-0.6c0.1,0.1,0.2,0.3,0.3,0.4c0.3,0.3,0.5,0.5,0.8,0.7c0.3,0.2,0.6,0.3,0.9,0.3c0.3,0.1,0.6,0.1,0.8,0.1
	c0.1,0,0.3,0,0.4,0c0.2,0,0.3,0,0.4-0.1v-0.4C90.3,57.6,90.2,57.6,90.1,57.6"/>
<polygon class="st0" points="83.6,49.1 81.7,53.7 82.2,53.7 83.8,49.7 "/>
<path class="st0" d="M80,57.6L80,57.6l-0.1,0.1c-0.1,0-0.2,0.1-0.3,0.1l-0.1,0.3h0.7v-0.4C80.1,57.7,80.1,57.6,80,57.6"/>
<path class="st0" d="M12.6,31.1c-0.3-1.4-0.8-2.5-1.5-3.2c-0.7-0.7-1.7-1.1-2.9-1.1c-0.7,0-1.3,0.1-1.8,0.3
	c-0.6,0.2-1.1,0.6-1.5,1.2c-0.4,0.6-0.8,1.3-1,2.2c-0.2,0.9-0.4,2.1-0.4,3.5c0,0.9,0.1,1.7,0.3,2.6c0.2,0.8,0.4,1.6,0.8,2.2
	C5,39.4,5.4,39.9,6,40.3c0.6,0.4,1.3,0.6,2.2,0.6c1,0,1.9-0.3,2.8-0.8c0.8-0.6,1.5-1.4,2-2.5l0.8,0.6c-0.7,1.3-1.5,2.2-2.5,2.8
	c-1,0.6-2.2,0.9-3.7,0.9c-1.1,0-2.1-0.2-3-0.6c-0.9-0.4-1.6-1-2.2-1.7c-0.6-0.7-1.1-1.5-1.4-2.5c-0.3-1-0.5-2-0.5-3.1
	c0-1.2,0.2-2.3,0.5-3.3c0.4-1,0.9-1.9,1.5-2.6c0.6-0.7,1.4-1.3,2.2-1.8c0.9-0.4,1.8-0.6,2.8-0.6c1.3,0,2.4,0.2,3.3,0.6
	c0.8,0.4,1.4,0.8,1.8,1.3c0.3,0.4,0.5,0.9,0.5,1.5c0,0.6,0.1,1.3,0.1,2H12.6z"/>
<path class="st0" d="M23.2,26.2c0.4,0,0.7,0.1,0.9,0.2c0.2,0.1,0.4,0.2,0.6,0.4c0.1,0.2,0.2,0.4,0.3,0.6c0,0.2,0.1,0.4,0.1,0.7v2
	h-0.6c0-1-0.2-1.7-0.7-2.1c-0.5-0.4-1.1-0.6-2-0.6h-3.5V33h5.6v1h-5.6v6.4H22c0.8,0,1.5-0.2,2-0.6c0.6-0.4,1-1.1,1.4-2.1l0.6,0.2
	l-0.6,1.8c-0.2,0.5-0.4,0.9-0.6,1.2c-0.3,0.3-0.7,0.4-1.3,0.4h-8V29.2c0-0.7-0.1-1.3-0.3-1.7c-0.2-0.4-0.6-0.6-1.2-0.6h-0.2v-0.7
	H23.2z"/>
<path class="st0" d="M38.1,36.8V26.2h1.1v15.3h-1L29.1,30v11.4H28V29c0-0.3,0-0.6-0.1-0.8c-0.1-0.3-0.2-0.5-0.3-0.7
	c-0.2-0.2-0.4-0.3-0.6-0.4c-0.3-0.1-0.6-0.2-0.9-0.2H26v-0.7h1.5c0.8,0,1.5,0.1,2,0.3c0.5,0.2,0.9,0.6,1.3,1L38.1,36.8z"/>
<path class="st0" d="M52.7,26.2v1h-4.5v14.2h-2.8V27.2h-1.5c-0.8,0-1.4,0.2-1.8,0.6c-0.4,0.4-0.7,1.1-0.7,2.2h-0.6v-2
	c0-0.2,0-0.5,0.1-0.7c0-0.2,0.1-0.4,0.3-0.6c0.1-0.2,0.3-0.3,0.6-0.4c0.2-0.1,0.5-0.2,0.9-0.2H52.7z"/>
<path class="st0" d="M57.6,34.5h-0.9v7H54V29.6c0-0.7-0.1-1.3-0.3-1.7c-0.2-0.4-0.6-0.7-1.2-0.7h-0.2l0-1h5.9c0.3,0,0.7,0,1.1,0
	c0.4,0,0.8,0.1,1.3,0.2c0.4,0.1,0.8,0.3,1.3,0.5c0.4,0.2,0.8,0.4,1.1,0.8c0.3,0.3,0.6,0.7,0.8,1.2c0.2,0.5,0.3,1,0.3,1.6
	c0,0.6-0.1,1.1-0.3,1.6c-0.2,0.4-0.5,0.8-0.8,1.1c-0.3,0.3-0.7,0.5-1.1,0.7c-0.4,0.2-0.8,0.3-1.2,0.4l2.3,4c0.3,0.5,0.5,0.9,0.8,1.2
	c0.2,0.3,0.5,0.6,0.7,0.8c0.2,0.2,0.4,0.3,0.6,0.4c0.2,0.1,0.4,0.1,0.5,0.2v0.6c-0.1,0.1-0.3,0.1-0.6,0.2c-0.3,0-0.6,0.1-0.8,0.1
	c-0.4,0-0.7-0.1-1.1-0.2c-0.4-0.1-0.7-0.3-1-0.6c-0.3-0.3-0.7-0.6-1-1c-0.3-0.4-0.7-1-1-1.6L57.6,34.5z M58.2,27.1
	c-0.2,0-0.3,0-0.5,0c-0.2,0-0.3,0-0.5,0.1c-0.2,0-0.3,0.1-0.4,0.1v6.3h1.3c0.3,0,0.7-0.1,1-0.2c0.3-0.1,0.7-0.3,0.9-0.5
	c0.3-0.2,0.5-0.6,0.7-1c0.2-0.4,0.3-0.9,0.3-1.5c0-0.6-0.1-1.1-0.3-1.5c-0.2-0.4-0.4-0.7-0.7-1c-0.3-0.3-0.6-0.4-0.9-0.5
	C58.8,27.2,58.5,27.1,58.2,27.1"/>
<path class="st0" d="M76.6,38.5c0.3,0.7,0.6,1.2,0.9,1.6c0.4,0.4,0.8,0.6,1.3,0.7v0.6c-0.1,0-0.3,0.1-0.5,0.1c-0.2,0-0.4,0-0.5,0
	c-0.3,0-0.7,0-1.1-0.1c-0.4-0.1-0.8-0.2-1.2-0.4c-0.4-0.2-0.7-0.5-1.1-0.9c-0.3-0.4-0.6-0.9-0.9-1.6l-0.5-1.3h-5.8l-1.8,4.2h-1.1
	l6.3-15.2h1L76.6,38.5z M67.8,36.2h4.9l-2.4-6L67.8,36.2z"/>
<path class="st0" d="M90.1,40.4v1H79.9V29.2c0-0.7-0.1-1.3-0.3-1.7c-0.2-0.4-0.6-0.6-1.2-0.6h-0.2v-0.7h2.6c0.4,0,0.7,0.1,0.9,0.2
	c0.3,0.1,0.5,0.3,0.6,0.5c0.1,0.2,0.3,0.5,0.3,0.9c0.1,0.4,0.1,0.9,0.1,1.4v11.2H90.1z"/>
<path class="st0" d="M10,49.3c-0.2-1.1-0.6-1.9-1.1-2.5C8.3,46.3,7.6,46,6.7,46c-0.5,0-1,0.1-1.4,0.3c-0.4,0.2-0.8,0.5-1.1,0.9
	c-0.3,0.4-0.6,1-0.8,1.7C3.1,49.6,3,50.5,3,51.6c0,0.7,0.1,1.3,0.2,1.9c0.1,0.6,0.3,1.2,0.6,1.7C4.2,55.6,4.5,56,5,56.3
	c0.5,0.3,1,0.4,1.7,0.4c0.8,0,1.5-0.2,2.1-0.6c0.6-0.4,1.2-1.1,1.6-1.9l0.6,0.5c-0.5,1-1.1,1.7-1.9,2.1c-0.7,0.5-1.7,0.7-2.8,0.7
	c-0.9,0-1.6-0.2-2.3-0.5c-0.7-0.3-1.2-0.7-1.7-1.3c-0.5-0.5-0.8-1.2-1-1.9c-0.2-0.7-0.4-1.5-0.4-2.4c0-0.9,0.1-1.7,0.4-2.5
	c0.3-0.8,0.6-1.4,1.1-2c0.5-0.6,1.1-1,1.7-1.3c0.7-0.3,1.4-0.5,2.2-0.5c1,0,1.9,0.1,2.5,0.4c0.6,0.3,1.1,0.6,1.4,1
	c0.2,0.3,0.3,0.7,0.4,1.2c0,0.5,0.1,1,0.1,1.5H10z"/>
<path class="st0" d="M18.4,45.6c0.3,0,0.5,0,0.7,0.1c0.2,0.1,0.3,0.2,0.4,0.3c0.1,0.1,0.2,0.3,0.2,0.5c0,0.2,0.1,0.3,0.1,0.5v1.5
	h-0.5c0-0.8-0.2-1.3-0.5-1.6c-0.4-0.3-0.9-0.5-1.5-0.5h-2.6v4.4h4.3v0.8h-4.3v4.8h2.8c0.6,0,1.1-0.1,1.5-0.4
	c0.4-0.3,0.8-0.8,1.1-1.6l0.4,0.2L20,56c-0.1,0.4-0.3,0.7-0.5,0.9c-0.2,0.2-0.5,0.3-1,0.3h-6.1v-9.3c0-0.5-0.1-1-0.2-1.3
	c-0.1-0.3-0.5-0.5-0.9-0.5h-0.2v-0.5H18.4z"/>
<path class="st0" d="M24.8,51.9h-0.7v5.3H22v-9.3c0-0.5-0.1-1-0.2-1.3c-0.1-0.3-0.5-0.5-0.9-0.5h-0.2v-0.5h4.5c0.3,0,0.6,0,0.9,0
	c0.3,0,0.6,0.1,1,0.2c0.3,0.1,0.6,0.2,1,0.3c0.3,0.1,0.6,0.3,0.8,0.6c0.2,0.2,0.4,0.5,0.6,0.9c0.1,0.3,0.2,0.8,0.2,1.2
	c0,0.5-0.1,0.9-0.2,1.2c-0.2,0.3-0.4,0.6-0.6,0.8c-0.3,0.2-0.5,0.4-0.9,0.6c-0.3,0.1-0.6,0.3-0.9,0.3l1.7,3.1
	c0.2,0.4,0.4,0.7,0.6,0.9c0.2,0.2,0.4,0.4,0.5,0.6c0.2,0.1,0.3,0.2,0.5,0.3c0.1,0.1,0.3,0.1,0.4,0.1v0.4c-0.1,0-0.2,0.1-0.5,0.1
	c-0.2,0-0.4,0.1-0.6,0.1c-0.3,0-0.6,0-0.8-0.1c-0.3-0.1-0.5-0.2-0.8-0.4c-0.3-0.2-0.5-0.5-0.8-0.8c-0.3-0.3-0.5-0.7-0.8-1.2
	L24.8,51.9z M25.3,46.3c-0.1,0-0.3,0-0.4,0c-0.1,0-0.2,0-0.3,0.1c-0.1,0-0.2,0-0.3,0.1v4.8h1c0.3,0,0.5,0,0.8-0.1
	c0.3-0.1,0.5-0.2,0.7-0.4c0.2-0.2,0.4-0.4,0.5-0.8c0.1-0.3,0.2-0.7,0.2-1.2s-0.1-0.8-0.2-1.2c-0.1-0.3-0.3-0.6-0.5-0.8
	c-0.2-0.2-0.4-0.3-0.7-0.4C25.7,46.3,25.5,46.3,25.3,46.3"/>
<path class="st0" d="M31.2,47.6c-0.3-0.7-0.5-1.1-0.8-1.4c-0.2-0.3-0.5-0.4-0.9-0.5v-0.4c0,0,0.2,0,0.3,0c0.2,0,0.3,0,0.4,0
	c0.3,0,0.6,0,0.9,0.1c0.3,0,0.6,0.1,0.9,0.3c0.3,0.2,0.6,0.4,0.8,0.7c0.3,0.3,0.5,0.7,0.7,1.2l2.6,6.6l3.5-8.6h0.8l-4.7,11.8H35
	L31.2,47.6z"/>
<path class="st0" d="M47.3,45.6c0.3,0,0.5,0,0.7,0.1c0.2,0.1,0.3,0.2,0.4,0.3c0.1,0.1,0.2,0.3,0.2,0.5c0,0.2,0.1,0.3,0.1,0.5v1.5
	h-0.5c0-0.8-0.2-1.3-0.5-1.6c-0.4-0.3-0.9-0.5-1.5-0.5h-2.6v4.4h4.3v0.8h-4.3v4.8h2.8c0.6,0,1.1-0.1,1.5-0.4
	c0.4-0.3,0.8-0.8,1.1-1.6l0.4,0.2L48.9,56c-0.1,0.4-0.3,0.7-0.5,0.9c-0.2,0.2-0.5,0.3-1,0.3h-6.1v-9.3c0-0.5-0.1-1-0.2-1.3
	c-0.1-0.3-0.5-0.5-0.9-0.5h-0.2v-0.5H47.3z"/>
<path class="st0" d="M58.9,49.3c-0.2-1.1-0.6-1.9-1.1-2.5c-0.6-0.6-1.3-0.9-2.2-0.9c-0.5,0-1,0.1-1.4,0.3c-0.4,0.2-0.8,0.5-1.1,0.9
	c-0.3,0.4-0.6,1-0.8,1.7C52,49.6,52,50.5,52,51.6c0,0.7,0.1,1.3,0.2,1.9c0.1,0.6,0.3,1.2,0.6,1.7c0.3,0.5,0.7,0.9,1.1,1.2
	c0.5,0.3,1,0.4,1.7,0.4c0.8,0,1.5-0.2,2.1-0.6c0.6-0.4,1.2-1.1,1.6-1.9l0.6,0.5c-0.5,1-1.1,1.7-1.9,2.1c-0.7,0.5-1.7,0.7-2.8,0.7
	c-0.9,0-1.6-0.2-2.3-0.5c-0.7-0.3-1.2-0.7-1.7-1.3c-0.5-0.5-0.8-1.2-1-1.9c-0.2-0.7-0.4-1.5-0.4-2.4c0-0.9,0.1-1.7,0.4-2.5
	c0.3-0.8,0.6-1.4,1.1-2c0.5-0.6,1.1-1,1.7-1.3c0.7-0.3,1.4-0.5,2.2-0.5c1,0,1.9,0.1,2.5,0.4c0.6,0.3,1.1,0.6,1.4,1
	c0.2,0.3,0.3,0.7,0.4,1.2c0,0.5,0,1,0,1.5H58.9z"/>
<path class="st0" d="M67,45.6c0.3,0,0.5,0,0.7,0.1c0.2,0.1,0.3,0.2,0.4,0.3c0.1,0.1,0.2,0.3,0.2,0.5c0,0.2,0.1,0.3,0.1,0.5v1.5h-0.5
	c0-0.8-0.2-1.3-0.5-1.6c-0.4-0.3-0.9-0.5-1.5-0.5h-2.6v4.4h4.3v0.8h-4.3v4.8H66c0.6,0,1.1-0.1,1.5-0.4c0.4-0.3,0.8-0.8,1.1-1.6
	l0.4,0.2L68.6,56c-0.1,0.4-0.3,0.7-0.5,0.9c-0.2,0.2-0.5,0.3-1,0.3h-6.1v-9.3c0-0.5-0.1-1-0.2-1.3c-0.1-0.3-0.5-0.5-0.9-0.5h-0.2
	v-0.5H67z"/>
<path class="st0" d="M73.4,51.9h-0.7v5.3h-2.1v-9.3c0-0.5-0.1-1-0.2-1.3c-0.1-0.3-0.5-0.5-0.9-0.5h-0.2v-0.5h4.5c0.3,0,0.6,0,0.9,0
	c0.3,0,0.6,0.1,1,0.2c0.3,0.1,0.6,0.2,1,0.3c0.3,0.1,0.6,0.3,0.8,0.6c0.2,0.2,0.4,0.5,0.6,0.9c0.1,0.3,0.2,0.8,0.2,1.2
	c0,0.5-0.1,0.9-0.2,1.2c-0.2,0.3-0.4,0.6-0.6,0.8c-0.3,0.2-0.5,0.4-0.9,0.6c-0.3,0.1-0.6,0.3-0.9,0.3l1.7,3.1
	c0.2,0.4,0.4,0.7,0.6,0.9c0.2,0.2,0.4,0.4,0.5,0.6c0.2,0.1,0.3,0.2,0.5,0.3c0.1,0.1,0.3,0.1,0.4,0.1v0.4c-0.1,0-0.2,0.1-0.5,0.1
	c-0.2,0-0.4,0.1-0.6,0.1c-0.3,0-0.6,0-0.8-0.1c-0.3-0.1-0.5-0.2-0.8-0.4c-0.3-0.2-0.5-0.5-0.8-0.8c-0.3-0.3-0.5-0.7-0.8-1.2
	L73.4,51.9z M73.8,46.3c-0.1,0-0.3,0-0.4,0c-0.1,0-0.2,0-0.3,0.1c-0.1,0-0.2,0-0.3,0.1v4.8h1c0.3,0,0.5,0,0.8-0.1
	c0.3-0.1,0.5-0.2,0.7-0.4c0.2-0.2,0.4-0.4,0.5-0.8c0.1-0.3,0.2-0.7,0.2-1.2s-0.1-0.8-0.2-1.2c-0.1-0.3-0.3-0.6-0.5-0.8
	c-0.2-0.2-0.4-0.3-0.7-0.4C74.3,46.3,74.1,46.3,73.8,46.3"/>
<path class="st0" d="M87.9,55c0.2,0.5,0.4,0.9,0.7,1.2c0.3,0.3,0.6,0.5,1,0.5v0.4c-0.1,0-0.2,0-0.4,0.1c-0.2,0-0.3,0-0.4,0
	c-0.3,0-0.5,0-0.8-0.1c-0.3-0.1-0.6-0.2-0.9-0.3c-0.3-0.2-0.6-0.4-0.8-0.7c-0.3-0.3-0.5-0.7-0.7-1.2l-0.4-1h-4.4l-1.4,3.2h-0.8
	l4.8-11.6h0.7L87.9,55z M81.2,53.2h3.7l-1.8-4.6L81.2,53.2z"/>
<path class="st0" d="M22.5,70.3H21v-7.4h1.4c1.9,0,2.4,1.5,2.4,3.7C24.9,68.8,24.4,70.3,22.5,70.3 M22.5,63.8H22v5.5h0.5
	c1.2,0,1.4-1,1.4-2.8C23.9,64.8,23.7,63.8,22.5,63.8"/>
<polygon class="st0" points="26.4,70.3 26.4,62.9 29.1,62.9 29.1,63.8 27.4,63.8 27.4,65.9 29,65.9 29,66.9 27.4,66.9 27.4,69.4 
	29.3,69.4 29.3,70.3 "/>
<path class="st0" d="M34.2,70.4c-1.2,0-1.8-0.6-1.8-3.8c0-3.2,0.7-3.8,1.8-3.8c0.6,0,1.1,0.2,1.5,0.4v1.2c-0.4-0.3-0.8-0.5-1.4-0.5
	c-0.7,0-1,0.3-1,2.7c0,2.3,0.3,2.7,1,2.7c0.5,0,1-0.2,1.4-0.5V70C35.4,70.2,34.8,70.4,34.2,70.4"/>
<path class="st0" d="M38.7,70.4c-1.4,0-2-0.9-2-3.8c0-2.9,0.6-3.8,2-3.8c1.4,0,2,0.9,2,3.8C40.6,69.5,40.1,70.4,38.7,70.4
	 M38.7,63.7c-0.8,0-1,0.6-1,2.9c0,2.3,0.2,2.9,1,2.9c0.8,0,1-0.6,1-2.9C39.6,64.3,39.5,63.7,38.7,63.7"/>
<polygon class="st0" points="42.1,70.3 42.1,62.9 43.1,62.9 43.1,69.4 44.9,69.4 44.9,70.3 "/>
<path class="st0" d="M47.5,70.4c-1.4,0-2-0.9-2-3.8c0-2.9,0.6-3.8,2-3.8c1.4,0,2,0.9,2,3.8C49.5,69.5,48.9,70.4,47.5,70.4
	 M47.5,63.7c-0.8,0-1,0.6-1,2.9c0,2.3,0.2,2.9,1,2.9c0.8,0,1-0.6,1-2.9C48.5,64.3,48.3,63.7,47.5,63.7"/>
<path class="st0" d="M55.2,70.3v-4.2c0-0.5,0.2-2.2,0.2-2.2s-0.3,1.6-0.5,2.1l-1.2,4.4h-0.5l-1.2-4.4c-0.1-0.4-0.4-2.1-0.4-2.1
	s0.2,1.7,0.2,2.2v4.2h-0.8v-7.4H52l1.2,4.3c0.2,0.6,0.3,1.6,0.3,1.6s0.2-1,0.3-1.6l1.2-4.3h1.1v7.4H55.2z"/>
<path class="st0" d="M59.7,70.3h-1.9v-7.4h1.6c1.1,0,1.7,0.8,1.7,2c0,0.6-0.2,1.1-0.5,1.4c0.6,0.3,0.9,1.1,0.9,1.9
	C61.5,69.4,60.9,70.3,59.7,70.3 M58.8,63.8v2.2h0.5c0.6,0,0.8-0.5,0.8-1.1c0-0.6-0.1-1.1-0.8-1.1H58.8z M59.6,66.9h-0.8v2.5h0.8
	c0.7,0,0.8-0.6,0.8-1.3C60.5,67.4,60.2,66.9,59.6,66.9"/>
<rect x="62.8" y="62.9" class="st0" width="1" height="7.4"/>
<path class="st0" d="M65.7,70.3h-0.9l1.7-7.4h1.2l1.7,7.4h-1l-0.4-1.8H66L65.7,70.3z M67.3,65.5c-0.1-0.7-0.3-2-0.3-2
	s-0.2,1.4-0.3,2l-0.4,2.1h1.5L67.3,65.5z"/>
<path class="st0" d="M67.3,14c-1.7,0.5-5.1,2.2-2.6,3c1.5,0.5,3.4-2.1,3.6-2.4c0.1-0.2,0.5-0.8,0.6-0.9L67.3,14z"/>
<path class="st0" d="M64.6,17.7c-2.6,0.6,1.6,3.8,3,3.8c-0.8-1.5-0.4-3.3-2.2-3.8C65.1,17.7,64.6,17.7,64.6,17.7"/>
<path class="st0" d="M71.5,14.3c-1.6,0.4-4.8,2-2.4,2.7c1.4,0.4,3.1-2,3.3-2.2c0.1-0.2,0.4-0.7,0.5-0.9L71.5,14.3z"/>
<path class="st0" d="M69,17.7c-2.4,0.6,1.4,3.5,2.8,3.6c-0.7-1.4-0.4-3.1-2-3.6C69.5,17.7,69,17.7,69,17.7"/>
<path class="st0" d="M75.3,14.6c-1.4,0.4-4.3,1.8-2.2,2.5c1.3,0.4,2.8-1.8,3-2c0.1-0.2,0.4-0.6,0.5-0.8L75.3,14.6z"/>
<path class="st0" d="M72.9,17.8c-2.2,0.5,1.3,3.2,2.6,3.2c-0.6-1.2-0.3-2.8-1.9-3.2C73.4,17.7,72.9,17.8,72.9,17.8"/>
<path class="st0" d="M76.1,17.5c0,0.6,3.8,0.1,5.1-0.2l-2.6-0.2C78.7,17.2,76.1,17,76.1,17.5"/>
<path class="st0" d="M76.4,16.6c0.2,0.4,2.7-0.4,3.5-0.9L78.2,16C78.2,16,76.3,16.3,76.4,16.6"/>
<path class="st0" d="M76.4,18.5c0.2-0.4,2.7,0.4,3.5,0.9l-1.8-0.2C78.2,19.1,76.3,18.9,76.4,18.5"/>
<path class="st0" d="M22.3,13.5c1.7,0.5,5.1,2.2,2.6,3c-1.5,0.5-3.4-2.1-3.6-2.4c-0.1-0.2-0.5-0.8-0.6-0.9L22.3,13.5z"/>
<path class="st0" d="M25.1,17.3c2.6,0.6-1.6,3.8-3,3.8c0.8-1.5,0.4-3.3,2.2-3.8C24.5,17.2,25.1,17.3,25.1,17.3"/>
<path class="st0" d="M18.1,13.8c1.5,0.4,4.8,2,2.4,2.7c-1.4,0.4-3.1-2-3.3-2.2c-0.1-0.2-0.4-0.7-0.5-0.9L18.1,13.8z"/>
<path class="st0" d="M20.7,17.3c2.4,0.6-1.4,3.5-2.8,3.6c0.7-1.4,0.4-3.1,2.1-3.6C20.2,17.2,20.7,17.3,20.7,17.3"/>
<path class="st0" d="M14.4,14.2c1.4,0.4,4.3,1.8,2.2,2.5c-1.3,0.4-2.8-1.8-3-2c-0.1-0.2-0.4-0.6-0.5-0.8L14.4,14.2z"/>
<path class="st0" d="M16.7,17.3c2.2,0.5-1.3,3.2-2.6,3.2c0.6-1.2,0.3-2.8,1.9-3.2C16.2,17.2,16.7,17.3,16.7,17.3"/>
<path class="st0" d="M13.5,17.1c0,0.6-3.8,0.1-5.1-0.2l2.6-0.2C11,16.7,13.5,16.5,13.5,17.1"/>
<path class="st0" d="M13.2,16.2c-0.2,0.4-2.7-0.4-3.5-0.9l1.8,0.2C11.5,15.5,13.4,15.8,13.2,16.2"/>
<path class="st0" d="M13.2,18c-0.2-0.4-2.7,0.4-3.5,0.9l1.8-0.2C11.5,18.7,13.4,18.4,13.2,18"/>
<path class="st0" d="M34,15.8v4.1c0,0,5.2-2.2,10.9-2.2c5.7,0,10.6,2.2,10.6,2.2v-4.1c0,0-4.4-2.2-10.5-2.2
	C38.8,13.6,34,15.8,34,15.8"/>
<rect x="-206.5" y="-23.7" class="st1" width="507" height="124"/>
<g>
	<defs>
		<path id="SVGID_5_" d="M34,15.8v4.1c0,0,5.2-2.2,10.9-2.2c5.7,0,10.6,2.2,10.6,2.2v-4.1c0,0-4.3-2.2-10.5-2.2
			C38.8,13.6,34,15.8,34,15.8"/>
	</defs>
	<clipPath id="SVGID_2_">
		<use xlink:href="#SVGID_5_"  style="overflow:visible;"/>
	</clipPath>
	<rect x="34" y="13.6" class="st2" width="21.5" height="6.3"/>
</g>
<g>
	<defs>
		<rect id="SVGID_7_" x="-206.5" y="-23.7" width="507" height="124"/>
	</defs>
	<clipPath id="SVGID_4_">
		<use xlink:href="#SVGID_7_"  style="overflow:visible;"/>
	</clipPath>
	<path class="st3" d="M45.9,0.7H44c0,0,0.4,10.4,1,10.4S45.9,0.7,45.9,0.7"/>
	<path class="st3" d="M39.2,1.2l-1.8,0.6c0,0,4,9.6,4.6,9.4C42.5,11.1,39.2,1.2,39.2,1.2"/>
	<path class="st3" d="M32.6,3.9L31.2,5c0,0,6.8,7.2,7.2,6.9C38.8,11.6,32.6,3.9,32.6,3.9"/>
	<path class="st3" d="M28.3,8.4l-1,1.5c0,0,7.2,3.7,7.7,3.3C35.3,12.8,28.3,8.4,28.3,8.4"/>
	<path class="st3" d="M50.6,1.2l1.7,0.6c0,0-4,9.6-4.6,9.4C47.3,11.1,50.6,1.2,50.6,1.2"/>
	<path class="st3" d="M57.2,3.9L58.6,5c0,0-6.8,7.2-7.2,6.9C51.1,11.6,57.2,3.9,57.2,3.9"/>
	<path class="st3" d="M61.6,8.4l1,1.5c0,0-7.2,3.7-7.7,3.3C54.5,12.8,61.6,8.4,61.6,8.4"/>
</g>
</svg>
