<?xml version="1.0" encoding="iso-8859-1"?>
<!-- Generator: Adobe Illustrator 19.0.0, SVG Export Plug-In . SVG Version: 6.00 Build 0)  -->
<svg xmlns="http://www.w3.org/2000/svg" xmlns:xlink="http://www.w3.org/1999/xlink" version="1.1" id="Layer_1" x="0px" y="0px" viewBox="0 0 511.828 511.828" style="enable-background:new 0 0 511.828 511.828;" xml:space="preserve" width="512" height="512">
<g>
	<g>
		<g>
			<path style="fill:#F36986;" d="M452.104,203.69c0-107.329-86.185-194.529-193.124-196.167     C150.311,5.859,59.723,95.009,59.723,203.691c0,48.34,17.493,92.588,46.481,126.783h-0.018l0.544,0.622     c0.884,1.034,1.781,2.057,2.686,3.073l145.953,167.009c3.779,4.324,10.55,4.175,14.134-0.312l136.138-170.392h-0.018     C434.611,296.278,452.104,252.031,452.104,203.69z"/>
		</g>
		<g>
			<path style="fill:#F33759;" d="M452.104,203.69c0-107.329-86.185-194.529-193.124-196.167     c-10.824-0.166-21.464,0.584-31.857,2.149c94.498,14.107,166.981,95.592,166.981,194.018c0,48.34-17.493,92.588-46.481,126.783     h0.018L232.323,474.807l23.046,26.37c3.779,4.324,10.55,4.175,14.134-0.312l136.138-170.392h-0.018     C434.611,296.278,452.104,252.031,452.104,203.69z"/>
		</g>
		<g>
			<circle style="fill:#FFD2E3;" cx="255.914" cy="199.481" r="80.971"/>
		</g>
	</g>
	<g>
		<path d="M400.985,60.708c-37.761-38.309-88.151-59.86-141.891-60.684C258.041,0.008,256.992,0,255.941,0    c-53.438,0-103.982,20.85-142.633,58.912C73.917,97.705,52.224,149.121,52.224,203.69c0,48.018,17.026,94.616,47.956,131.274    c0.114,0.152,0.234,0.301,0.361,0.445l0.488,0.558c0.917,1.074,1.848,2.137,2.739,3.137l145.952,167.009    c3.186,3.645,7.753,5.715,12.579,5.715c0.124,0,0.249-0.002,0.373-0.005c4.964-0.109,9.589-2.396,12.689-6.276l98.926-123.815    c2.586-3.236,2.059-7.955-1.178-10.541c-3.238-2.586-7.955-2.059-10.541,1.178l-98.926,123.815    c-0.413,0.518-0.936,0.636-1.302,0.644c-0.359-0.011-0.892-0.088-1.326-0.585L115.015,329.179c-0.87-0.977-1.732-1.961-2.638-3.02    l-0.243-0.278c-0.067-0.087-0.137-0.173-0.209-0.257c-28.826-34.005-44.701-77.309-44.701-121.934    c0-50.52,20.104-98.141,56.61-134.091c36.524-35.969,84.464-55.335,135.03-54.577c49.779,0.763,96.458,20.728,131.438,56.216    c35.017,35.525,54.302,82.564,54.302,132.452c0,44.625-15.876,87.929-44.702,121.934c-0.148,0.175-0.288,0.355-0.418,0.54    l-17.239,21.577c-2.586,3.236-2.059,7.955,1.178,10.541c3.236,2.585,7.955,2.058,10.541-1.178l17.537-21.949    c0.053-0.065,0.104-0.132,0.154-0.199c30.923-36.655,47.949-83.254,47.949-131.266C459.604,149.837,438.786,99.058,400.985,60.708    z"/>
		<path d="M190.164,151.622c-3.557-2.12-8.161-0.958-10.283,2.6c-8.138,13.644-12.438,29.294-12.438,45.259    c0,48.783,39.688,88.472,88.472,88.472s88.471-39.688,88.471-88.472s-39.688-88.471-88.471-88.471    c-16.732,0-33.024,4.695-47.116,13.577c-2.405,1.516-4.764,3.167-7.011,4.907c-3.274,2.537-3.873,7.248-1.337,10.522    c2.537,3.274,7.249,3.87,10.522,1.337c1.867-1.446,3.826-2.818,5.823-4.077c11.693-7.371,25.221-11.267,39.118-11.267    c40.512,0,73.471,32.959,73.471,73.471c0,40.513-32.959,73.472-73.471,73.472c-40.513,0-73.472-32.959-73.472-73.472    c0-13.261,3.569-26.254,10.321-37.575C194.886,158.348,193.722,153.744,190.164,151.622z"/>
	</g>
</g>















</svg>
