<?xml version="1.0" encoding="utf-8"?>
<!-- Generator: Adobe Illustrator 22.0.0, SVG Export Plug-In . SVG Version: 6.00 Build 0)  -->
<svg version="1.1" id="Layer_1" xmlns="http://www.w3.org/2000/svg" xmlns:xlink="http://www.w3.org/1999/xlink" x="0px" y="0px"
	 viewBox="0 0 156.7 30" style="enable-background:new 0 0 156.7 30;" xml:space="preserve">
<style type="text/css">
	.st0{fill:#FFFFFF;}
	.st1{fill:none;}
	.st2{clip-path:url(#SVGID_2_);fill:#FFFFFF;}
	.st3{clip-path:url(#SVGID_4_);fill:#FFFFFF;}
	.st4{clip-path:url(#SVGID_6_);fill:#FFFFFF;}
	.st5{clip-path:url(#SVGID_8_);fill:#FFFFFF;}
</style>
<path class="st0" d="M54.6,2.4c-0.2,0.3-0.4,0.7-0.6,1.3c-0.3,0.6-0.5,1.3-0.8,2.1c-0.3,0.8-0.6,1.6-0.8,2.5
	c-0.3,0.9-0.5,1.7-0.8,2.6c-0.2,0.9-0.4,1.7-0.6,2.4c-0.1,0.3-0.2,0.8-0.3,1.4c-0.1,0.6-0.2,1.3-0.4,2c-0.1,0.7-0.3,1.5-0.5,2.2
	c-0.2,0.8-0.4,1.5-0.7,2.2c-0.3,0.7-0.6,1.3-0.9,1.8c-0.3,0.5-0.7,0.9-1.2,1.1c-0.7-0.7-1.3-1.5-1.6-2.4c-0.3-0.9-0.5-1.9-0.6-3
	c0-1.1,0-2.2,0.1-3.4c0.1-1.2,0.2-2.4,0.4-3.6c0.1-1.2,0.2-2.4,0.3-3.6c0-1.2,0-2.3-0.2-3.4C45.2,3.6,45,3,44.7,2.7
	c-0.3-0.3-0.6-0.5-0.9-0.4c-0.3,0.1-0.7,0.3-1.1,0.6c-0.4,0.4-0.7,0.8-1.1,1.3c-0.3,0.5-0.7,1-1,1.6c-0.3,0.6-0.6,1.1-0.7,1.5
	c-0.5,1.2-1,2.6-1.5,3.9c-0.5,1.4-1,2.8-1.5,4.1c-0.5,1.4-0.9,2.7-1.2,4c-0.3,1.3-0.6,2.5-0.8,3.6c-0.2,1.1-0.2,2-0.2,2.8
	c0.1,0.8,0.3,1.4,0.7,1.7c0.6,0.7,1.1,0.9,1.6,0.7c0.5-0.2,0.9-0.5,1.2-1.1c0.3-0.5,0.6-1.2,0.8-1.9c0.2-0.7,0.3-1.2,0.4-1.6
	c0.1-0.5,0.1-1.1,0.2-2C39.8,21,39.9,20,40,19s0.3-2.1,0.4-3.3c0.2-1.2,0.4-2.3,0.6-3.4c0.2-0.9,0.3-1.6,0.5-2.3
	c0.2-0.6,0.3-1.1,0.4-1.5c0.1-0.4,0.3-0.8,0.4-1c0,1.7,0,3.4,0.1,5c0,0.7,0,1.4,0.1,2.2c0,0.7,0.1,1.5,0.1,2.2
	c0.1,0.7,0.1,1.5,0.2,2.2c0.1,0.7,0.2,1.3,0.3,1.9c0.1,0.7,0.3,1.4,0.5,2.2c0.2,0.8,0.5,1.5,0.9,2.3c0.3,0.7,0.7,1.4,1.2,1.9
	c0.4,0.6,0.9,1,1.4,1.2c0.5,0.3,1,0.3,1.6,0.2c0.6-0.1,1.2-0.6,1.8-1.3c0.5-0.6,1.1-1.4,1.5-2.4c0.5-1,0.9-2.1,1.2-3.2
	c0.2-0.7,0.3-1.4,0.5-2.1c0,0,0,0,0,0c0,0,2.7-14.6,1.3-17.5C54.8,2.1,54.7,2.1,54.6,2.4"/>
<path class="st0" d="M71.8,12.9c-0.3-0.2-0.6-0.4-1-0.6c-0.4-0.2-0.7-0.2-1.1-0.2c-0.4,0-0.7,0.1-1,0.3c-0.3,0.2-0.5,0.5-0.6,1
	c-0.1,0.4-0.3,0.9-0.5,1.6c-0.2,0.7-0.4,1.4-0.7,2.2c-0.3,0.8-0.6,1.6-1,2.4c-0.4,0.8-0.8,1.6-1.2,2.2c-0.5,0.7-0.9,1.2-1.5,1.6
	c-0.5,0.4-1.1,0.6-1.7,0.6c-0.4,0-0.7-0.2-0.8-0.6c-0.2-0.4-0.2-1-0.2-1.7c0-0.7,0.1-1.4,0.2-2.2c0.1-0.8,0.3-1.6,0.5-2.3
	c0.2-0.8,0.3-1.4,0.5-2c0.2-0.6,0.3-1,0.4-1.3c0.1-0.5,0-0.9-0.3-1.1c-0.4-0.2-0.8-0.3-1.3-0.2c-0.5,0-1,0.1-1.6,0.2
	c-0.5,0.2-0.9,0.3-1,0.4c-0.2,0.1-0.3,0.4-0.5,0.8c-0.2,0.4-0.4,1-0.6,1.6c-0.2,0.6-0.4,1.3-0.5,2c-0.2,0.7-0.3,1.4-0.4,2.1
	c-0.1,0.9-0.2,1.8-0.2,2.7c0,0.9,0.1,1.7,0.4,2.4s0.7,1.4,1.2,1.9c0.6,0.5,1.3,0.9,2.3,1c1,0.2,1.9,0,2.8-0.5c0.8-0.5,1.6-1,2.2-1.7
	c0.7-0.7,1.3-1.6,1.9-2.6c-0.1,0.9-0.1,1.8,0.1,2.5c0.2,0.7,0.5,1.3,1,1.9c0.5,0.6,1.3,1,2.4,1.2c0.7,0.1,1.2,0.1,1.7,0
	c0.4-0.1,0.8-0.2,0.9-0.4c0.2-0.2,0.2-0.4,0.1-0.6c-0.1-0.2-0.4-0.4-0.9-0.5c-0.5-0.1-0.8-0.5-1-1c-0.2-0.6-0.2-1.3-0.2-2.1
	c0-0.8,0.2-1.7,0.4-2.6c0.2-1,0.5-1.9,0.7-2.8c0.2-0.9,0.5-1.7,0.7-2.4c0.2-0.7,0.4-1.3,0.4-1.7c0-0.3,0-0.6-0.2-0.9
	C72.3,13.4,72.1,13.2,71.8,12.9"/>
<path class="st0" d="M86.4,10.3c0.5-0.3,0.8-0.6,0.9-0.9c0.1-0.3-0.1-0.6-0.5-0.7c-0.4-0.1-0.9-0.2-1.5-0.2c-0.7,0-1.4,0-2.3,0.1
	c0.1-0.5,0.2-1.1,0.3-1.6c0.1-0.5,0.2-1,0.3-1.6c0.1-0.6,0.2-1.2,0.3-1.8C84,3,83.8,2.4,83.5,2c-0.3-0.5-0.7-0.8-1.2-1.1
	c-0.4-0.3-0.9-0.4-1.4-0.3c-0.5,0.1-0.8,0.3-1,0.8c-0.1,0.3-0.3,0.6-0.4,0.9c-0.1,0.3-0.2,0.6-0.3,1c-0.1,0.4-0.2,0.9-0.3,1.6
	c-0.1,0.6-0.3,1.5-0.5,2.5c0,0.1-0.1,0.3-0.1,0.5s-0.1,0.4-0.1,0.6l-0.1,0.6c-0.8,0.2-1.6,0.4-2.2,0.6c-0.6,0.2-1.1,0.4-1.5,0.7
	c-0.5,0.3-0.7,0.6-0.7,1c0,0.5,0.2,0.8,0.6,0.9c0.4,0.2,0.8,0.2,1.4,0.2c0.6,0,1.2-0.1,2-0.2c-0.7,2.9-1.2,5.5-1.7,7.9
	c-0.2,1-0.4,2-0.6,2.9s-0.3,1.8-0.4,2.6c-0.1,0.8-0.1,1.4-0.1,1.9c0,0.5,0.1,0.8,0.2,0.8c0.3,0.1,0.6,0.2,0.9,0.3
	c0.3,0.1,0.7,0.1,1.1-0.1c0.4-0.2,0.7-0.5,1.1-1c0.4-0.5,0.8-1.4,1.2-2.5c0.4-1.1,0.7-2.5,1.1-4c0.4-1.5,0.7-3,1-4.4
	c0.3-1.6,0.6-3.3,1-5c0.8-0.2,1.6-0.3,2.3-0.5C85.3,10.8,85.9,10.6,86.4,10.3"/>
<path class="st0" d="M98,15.1c0.4-0.3,0.7-0.5,1-0.8c0.3-0.3,0.4-0.5,0.5-0.8c0.1-0.2,0-0.4-0.2-0.5c-0.8-0.2-1.6-0.2-2.5,0
	c-0.9,0.3-1.7,0.6-2.4,1c-0.9,0.5-1.7,1-2.6,1.7c0-0.4-0.1-0.7-0.2-1.1c-0.1-0.3-0.3-0.7-0.6-1.1c-0.2-0.4-0.6-0.9-1-1.3
	c-0.5-0.5-1.1-0.7-1.7-0.8c-0.7,0-1.3,0-1.9,0.2c-0.6,0.2-1.1,0.5-1.5,0.8c-0.4,0.3-0.6,0.5-0.5,0.7c0.1,0.2,0.1,0.3,0.3,0.4
	c0.1,0,0.3,0.1,0.5,0.1s0.4,0,0.6,0c0.2,0,0.5,0.1,0.7,0.3c0.3,0.2,0.5,0.5,0.6,0.9c0.1,0.4,0.1,1,0,1.7C87,17.1,86.8,18,86.6,19
	c-0.2,1-0.5,2.2-0.9,3.6c-0.5,2.2-0.6,3.7-0.4,4.7c0.2,0.9,0.8,1.3,1.8,1.3c0.8-0.1,1.6-0.5,2.2-1.3c0.7-0.8,1.2-2,1.5-3.7
	c0.2-0.8,0.4-1.6,0.7-2.5c0.3-0.9,0.6-1.7,1.1-2.4s1-1.4,1.7-2c0.6-0.6,1.4-0.9,2.4-1.1C97.2,15.5,97.6,15.3,98,15.1"/>
<path class="st0" d="M122.6,12.9c-0.3-0.2-0.6-0.4-1-0.6c-0.4-0.2-0.7-0.2-1.1-0.2c-0.4,0-0.7,0.1-1,0.3c-0.3,0.2-0.5,0.5-0.6,1
	c-0.1,0.4-0.3,0.9-0.5,1.6c-0.2,0.7-0.4,1.4-0.7,2.2c-0.3,0.8-0.6,1.6-1,2.4c-0.4,0.8-0.8,1.6-1.2,2.2c-0.5,0.7-0.9,1.2-1.5,1.6
	c-0.5,0.4-1.1,0.6-1.7,0.6c-0.4,0-0.7-0.2-0.8-0.6c-0.2-0.4-0.2-1-0.2-1.7c0-0.7,0.1-1.4,0.2-2.2c0.1-0.8,0.3-1.6,0.5-2.3
	c0.2-0.8,0.3-1.4,0.5-2c0.2-0.6,0.3-1,0.4-1.3c0.1-0.5,0-0.9-0.3-1.1c-0.4-0.2-0.8-0.3-1.3-0.2c-0.5,0-1,0.1-1.6,0.2
	c-0.5,0.2-0.9,0.3-1,0.4c-0.2,0.1-0.3,0.4-0.5,0.8c-0.2,0.4-0.4,1-0.6,1.6c-0.2,0.6-0.4,1.3-0.5,2c-0.2,0.7-0.3,1.4-0.4,2.1
	c-0.1,0.9-0.2,1.8-0.2,2.7c0,0.9,0.1,1.7,0.4,2.4s0.7,1.4,1.2,1.9c0.6,0.5,1.3,0.9,2.3,1c1,0.2,1.9,0,2.8-0.5c0.8-0.5,1.6-1,2.2-1.7
	c0.7-0.7,1.3-1.6,1.9-2.6c-0.1,0.9-0.1,1.8,0.1,2.5c0.2,0.7,0.5,1.3,1,1.9c0.5,0.6,1.3,1,2.4,1.2c0.7,0.1,1.2,0.1,1.7,0
	c0.4-0.1,0.8-0.2,0.9-0.4c0.2-0.2,0.2-0.4,0.1-0.6c-0.1-0.2-0.4-0.4-0.9-0.5c-0.5-0.1-0.8-0.5-1-1c-0.2-0.6-0.2-1.3-0.2-2.1
	c0-0.8,0.2-1.7,0.4-2.6c0.2-1,0.5-1.9,0.7-2.8c0.2-0.9,0.5-1.7,0.7-2.4c0.2-0.7,0.4-1.3,0.4-1.7c0-0.3,0-0.6-0.2-0.9
	C123.1,13.4,122.9,13.2,122.6,12.9"/>
<path class="st0" d="M156.2,27.5c-0.1-0.3-0.4-0.3-0.9-0.2c-0.6,0.1-1.1,0.1-1.5,0c-0.4-0.1-0.6-0.3-0.8-0.7
	c-0.2-0.4-0.2-0.9-0.2-1.6c0-0.7,0.1-1.5,0.2-2.5c0.1-1,0.2-1.9,0.2-2.8c0-0.9-0.1-1.7-0.3-2.4c-0.2-0.7-0.4-1.3-0.8-1.9
	c-0.3-0.5-0.7-0.9-1.1-1.2c-0.6-0.4-1.3-0.4-2-0.2c-0.7,0.3-1.4,0.7-2.1,1.4c-0.7,0.6-1.4,1.3-1.9,2.1c-0.6,0.8-1.1,1.5-1.4,2.2
	c-0.7,1.2-1.1,1.7-1.1,1.5s-0.1-1,0-2.3c0-0.7,0-1.4,0.1-2.1c0-0.7,0-1.4-0.1-2.1c-0.1-0.6-0.4-1.2-0.7-1.8c-0.4-0.5-1-1-1.8-1.3
	c-0.8-0.3-1.6-0.5-2.3-0.5c-0.7,0-1.4,0.2-2,0.4c-0.6,0.3-1.2,0.6-1.8,1c-0.6,0.4-1.1,0.9-1.6,1.4c-0.4,0.4-0.7,0.7-1,1
	c2.1-3.2,0.5-5.2-0.2-5.2c-0.7,0-2,0.6-1.4,2.8c0.5,1.7-1.7,5.6-2.6,7.1c-2.3,2.7-5.2,6.9-2.4,8.3c0.2,0.1,0.4,0.1,0.6,0.2
	c0.5,0.1,1,0,1.4-0.1c0.4-0.2,0.8-0.4,1.2-0.7c0.3-0.3,0.5-0.6,0.6-1c0.1-0.4,0.2-1,0.4-1.9c0.2-0.9,0.4-1.9,0.7-2.9
	c0.3-1,0.7-2.1,1.2-3.1c0.5-1,1-1.8,1.7-2.4c1.3-1.2,2.4-2,3.1-2.2c0.7-0.2,1.2-0.1,1.3,0.6c0,0.2,0,0.6-0.1,1.2
	c-0.1,0.5-0.2,1.2-0.3,2c-0.1,0.8-0.2,1.6-0.3,2.4c-0.1,0.9-0.1,1.7-0.1,2.6c0,0.9,0.1,1.7,0.2,2.4c0.1,0.8,0.4,1.4,0.7,1.9
	c0.5,0.7,1,1.2,1.6,1.3s1,0.1,1.5-0.2c0.5-0.3,1-0.6,1.5-1.1s0.9-1,1.4-1.6c0.4-0.6,0.9-1.2,1.4-2c0.5-0.8,0.9-1.5,1.4-2.1
	c0.4-0.6,0.8-1.1,1.1-1.4c0.3-0.3,0.5-0.2,0.5,0.3c0,0.3,0.1,0.8,0.1,1.3c0.1,0.6,0.1,1.2,0.3,2c0.1,0.7,0.3,1.5,0.6,2.2
	c0.2,0.8,0.6,1.4,1,2c0.4,0.6,0.9,1.1,1.4,1.5c0.6,0.4,1.3,0.6,2.1,0.6c0.8,0,1.5-0.1,2.1-0.4c0.6-0.3,1-0.6,1.2-0.9
	C156.3,28.1,156.3,27.8,156.2,27.5"/>
<path class="st0" d="M103.4,13c-0.4,0-0.8,0-1.3,0.2c-0.5,0.1-0.9,0.3-1.2,0.4c-0.3,0.2-0.6,0.4-0.9,0.7c-0.3,0.3-0.6,0.8-0.9,1.2
	c-0.3,0.5-0.6,1-0.8,1.6c-0.3,0.6-0.5,1.1-0.7,1.8c-0.4,1.6-0.7,2.9-0.9,4.1c-0.2,1.1-0.2,2.1-0.1,2.9c0.1,0.8,0.3,1.4,0.7,1.9
	c0.4,0.5,0.9,1,1.6,1.1c0.7,0.1,3.4,0.2,3.1-4.3c0-0.3-0.1-0.6-0.1-0.9c0,0,0,0,0,0l0,0c0-0.1,0-0.2,0-0.3c0-0.6,0.1-1.3,0.2-2.1
	c0.1-0.8,0.3-1.5,0.5-2.3c0.2-0.8,0.4-1.5,0.6-2.1c0.2-0.6,0.4-1.2,0.6-1.6c0.4-0.8,0.6-1.3,0.4-1.7S103.8,13,103.4,13"/>
<path class="st0" d="M106.3,3.6c0,0-6.4,1.5-3.5,7.4C102.8,11,108.4,9.8,106.3,3.6"/>
<path class="st0" d="M25.7,0.9H4.2c-2,0-3.6,1.6-3.6,3.6V26c0,2,1.6,3.6,3.6,3.6h21.5c2,0,3.6-1.6,3.6-3.6V4.5
	C29.3,2.5,27.7,0.9,25.7,0.9 M14.6,6.8c0.3-0.2,0.5-0.4,0.8-0.5c0.3-0.2,0.5-0.3,0.8-0.4c0.3-0.1,0.5-0.2,0.8-0.3
	c0.2-0.1,0.5-0.2,0.7-0.2c0.2-0.1,0.4-0.1,0.5-0.1c0.1,0,0.3-0.1,0.4-0.1c0.1,0,0.1,0,0.1,0l0.1,1.4c0,0,0,0-0.1,0
	c-0.1,0-0.2,0-0.3,0c-0.1,0-0.3,0-0.5,0.1c-0.2,0-0.4,0.1-0.6,0.1c-0.2,0-0.5,0.1-0.7,0.2c-0.3,0.1-0.5,0.2-0.8,0.3
	c-0.3,0.1-0.5,0.2-0.8,0.4c-0.1,0.1-0.3,0.1-0.4,0.2l-0.4,0.2c-0.3,0.2-0.5,0.4-0.8,0.5c-0.2,0.2-0.5,0.4-0.7,0.6
	c-0.2,0.2-0.4,0.4-0.6,0.6c-0.2,0.2-0.3,0.4-0.5,0.6c-0.1,0.2-0.3,0.4-0.4,0.5c-0.1,0.2-0.2,0.3-0.3,0.4c-0.1,0.2-0.2,0.4-0.2,0.4
	s0.1-0.1,0.2-0.4c0.1-0.1,0.1-0.3,0.2-0.5c0.1-0.2,0.2-0.4,0.3-0.6c0.1-0.2,0.2-0.5,0.4-0.7C12,9.3,12.2,9,12.4,8.8
	c0.2-0.2,0.4-0.5,0.6-0.7c0.2-0.2,0.5-0.5,0.7-0.7l0.4-0.3C14.3,7,14.4,6.9,14.6,6.8 M12.5,24.4c0.1,0.7,0.1,1.3,0.2,1.7
	c0,0.2,0.1,0.4,0.1,0.5c0,0.1,0,0.1,0,0.1L11.5,27c0,0,0-0.1,0-0.2c0-0.1,0-0.3-0.1-0.5c-0.1-0.5-0.1-1.1-0.1-1.9
	c0-0.4,0-0.8,0.1-1.2c0-0.4,0.1-0.9,0.2-1.4c0.1-0.5,0.2-0.9,0.3-1.4c0.1-0.5,0.3-1,0.5-1.4c0.1-0.2,0.2-0.5,0.3-0.7
	c0.1-0.2,0.2-0.4,0.3-0.7c0.2-0.4,0.5-0.9,0.7-1.2c0.1-0.2,0.3-0.4,0.4-0.6c0.1-0.2,0.3-0.4,0.4-0.5c0.3-0.3,0.5-0.6,0.8-0.9
	c0.3-0.3,0.5-0.5,0.7-0.7c0.2-0.2,0.4-0.4,0.6-0.5c0.3-0.3,0.5-0.4,0.5-0.4s-0.2,0.2-0.5,0.5c-0.2,0.1-0.3,0.3-0.5,0.6
	c-0.2,0.2-0.4,0.5-0.6,0.8c-0.2,0.3-0.5,0.6-0.7,1c-0.1,0.2-0.2,0.3-0.3,0.5c-0.1,0.2-0.2,0.4-0.3,0.6c-0.2,0.4-0.4,0.8-0.6,1.3
	c-0.1,0.2-0.2,0.4-0.3,0.7c-0.1,0.2-0.2,0.5-0.2,0.7c-0.1,0.5-0.3,0.9-0.3,1.4c-0.1,0.5-0.2,0.9-0.2,1.4c0,0.4-0.1,0.9-0.1,1.3
	C12.4,23.7,12.4,24,12.5,24.4 M21,13.2c-0.1,0.7-0.2,1.4-0.4,2.1c-0.2,0.7-0.5,1.3-0.9,1.9c-0.4,0.6-0.8,1.2-1.3,1.6
	c-0.5,0.5-1.1,0.9-1.6,1.2c-0.3,0.2-0.6,0.3-0.9,0.5c-0.3,0.1-0.6,0.3-0.9,0.4c-0.3,0.1-0.6,0.2-0.9,0.3l-0.5,0.1l-0.5,0.1
	c0.3-0.1,0.6-0.3,0.9-0.4c0.3-0.1,0.6-0.3,0.9-0.5c0.3-0.2,0.6-0.3,0.8-0.5c0.3-0.2,0.5-0.4,0.8-0.6c0.5-0.4,0.9-0.8,1.3-1.3
	c0.4-0.5,0.7-1,1-1.6c0.3-0.5,0.4-1.1,0.6-1.7c0.1-0.6,0.2-1.2,0.2-1.8c0-0.6-0.1-1.2-0.2-1.8c-0.1-0.3-0.1-0.6-0.2-0.9
	c0-0.1,0-0.1-0.1-0.2c-0.4,0-0.7,0.1-1,0.1c-0.5,0.1-1,0.3-1.5,0.5c-1,0.5-1.9,1.2-2.6,2c-0.8,0.9-1.4,1.8-1.9,2.9
	c-0.3,0.5-0.5,1.1-0.7,1.6c-0.1,0.3-0.2,0.6-0.3,0.8c-0.1,0.3-0.2,0.6-0.3,0.8l-0.6,2.2l-1.1-1.9c-0.2-0.3-0.4-0.6-0.6-1
	c-0.2-0.3-0.3-0.7-0.5-1c-0.3-0.7-0.5-1.4-0.6-2.2c-0.1-0.8-0.1-1.5,0-2.3c0.1-0.8,0.3-1.5,0.6-2.2C8,10,8.4,9.3,8.8,8.8
	c0.4-0.6,1-1.1,1.5-1.6c0.5-0.5,1.1-0.9,1.7-1.3c0.3-0.2,0.6-0.4,0.9-0.5c0.3-0.2,0.6-0.3,1-0.4c-0.6,0.4-1.1,0.9-1.6,1.3
	c-0.5,0.5-1,1-1.4,1.5c-0.4,0.5-0.8,1.1-1.2,1.7c-0.3,0.6-0.6,1.2-0.8,1.8c-0.2,0.6-0.3,1.3-0.3,1.9c0,0.6,0,1.3,0.2,1.9
	c0.1,0.6,0.3,1.1,0.6,1.6c0.2-0.5,0.4-1,0.7-1.5c0.6-1.2,1.3-2.3,2.2-3.3c0.5-0.5,1-1,1.5-1.4c0.6-0.4,1.2-0.8,1.8-1.1
	c1.3-0.6,2.7-0.8,4.1-0.7l0.6,0L20.5,9c0.1,0.2,0.1,0.4,0.2,0.5c0,0.2,0.1,0.3,0.1,0.5c0.1,0.3,0.1,0.7,0.2,1
	C21,11.8,21,12.5,21,13.2"/>
<rect x="-328.1" y="-45.2" class="st1" width="507" height="124"/>
<g>
	<defs>
		<rect id="SVGID_7_" x="-328.1" y="-45.2" width="507" height="124"/>
	</defs>
	<clipPath id="SVGID_2_">
		<use xlink:href="#SVGID_7_"  style="overflow:visible;"/>
	</clipPath>
</g>
</svg>
