<?xml version="1.0" encoding="utf-8"?>
<!-- Generator: Adobe Illustrator 22.0.0, SVG Export Plug-In . SVG Version: 6.00 Build 0)  -->
<svg version="1.1" id="Layer_1" xmlns="http://www.w3.org/2000/svg" xmlns:xlink="http://www.w3.org/1999/xlink" x="0px" y="0px"
	 viewBox="0 0 152.2 49.9" style="enable-background:new 0 0 152.2 49.9;" xml:space="preserve">
<style type="text/css">
	.st0{fill:#FFFFFF;}
	.st1{fill:none;}
	.st2{clip-path:url(#SVGID_2_);fill:#FFFFFF;}
	.st3{clip-path:url(#SVGID_4_);fill:#FFFFFF;}
	.st4{clip-path:url(#SVGID_6_);fill:#FFFFFF;}
	.st5{clip-path:url(#SVGID_8_);fill:#FFFFFF;}
</style>
<path class="st0" d="M16.1,30.7c2.7-0.6,5.8-1.5,9.6-2.7c7.6-2.6,18.5-8.7,19.9-15.7c1.2-6.1-3.7-10.9-9.2-11.6
	C31.7,0.1,23.8-0.4,5,10.8c0,0-3.3,1.9-3.6,2.3c-0.3,0.5-1,3.7-0.9,6.2c0,0-0.4,2.9,1.4,1.6c0,0,15.9-12.5,29.4-14.7
	c7-1.1,13.4,2.9,8.9,9.1c-4.3,6-11.1,8.9-21.6,11.7c3.4-5.4,6.7-10.6,6.7-10.6c1.6-3-0.5-5.3-2.2-4.5c-0.6,0.3-8.2,12.4-10.7,16.5
	c-2.3,0.2-4.7,0.3-6.5,0.4C3.1,28.8,2.1,31,5,31.5c1.4,0.2,3,0.3,5.2,0.1L3.9,41.9C1.5,46.1,2,47.7,2,47.7c0.6,3.6,3.8,0.9,4.4,0.5
	c1.2-0.9,3.1-4.4,3.1-4.4c0.8-1.9,0.5-2.2,0.5-2.2S12.6,36.6,16.1,30.7"/>
<path class="st0" d="M150.7,39.7c-1.9,1.7-6.1,4.7-7.4,5c-1.6,0.3-1.4-0.7-1-1.4c1-2.1,4.1-5.1,6.6-9.3c1.5-2.5,1.6-5-1.4-5.4
	c-2.5-0.3-4.9,0.4-8.5,2.3c-0.1,0.1-0.2,0.1-0.3,0.2c-0.4,0.2-0.7,0.1-0.5-0.3c0.1-0.1,0.2-0.3,0.3-0.4c0.1-0.2,0.2-0.6,0.2-0.8
	c0-0.4-0.1-0.7-0.4-0.9c-0.4-0.2-0.7-0.3-1.4-0.3c-0.9,0-2.2,0.3-2.9,1.5c-0.5,0.8-1.1,1.9-1.8,3.1c-2,2.3-4.6,3.3-6.4,2.9
	c0,0,0,0,0-0.1c0.1-0.6,0.3-2,0.3-2.6c0,0,0.1-1.3-0.2-2.3c-0.3-1.3-1.5-2.6-3.3-2.8c-1.6-0.3-3.6,0.1-5.6,1.3
	c-1.7,1-3.1,2.1-4.3,3.2c-1.6,1.2-2.4,1.8-3.8,1.5c-1.8-0.4-2-0.7-2.3-1.2c-0.3-0.4-0.5-0.8-1.9,0.4c-1.5,1.2-1.1,2-1.1,2
	c0.1,0.1-1.3,3-2.9,5.2c-1,1.4-2.1,2.3-3.2,3c-1.4,0.9-2.4,1-2.9,0.3c-0.7-1.2,0.5-3.2,2.1-6.8c3.5-1.5,7.8-6.1,10-8.1
	c6.8-6.3,8.5-10.5,8.5-14c0-1.8-1.7-2.6-2.8-2.6c-4.2,0.2-8.7,4.3-16.9,17.8c-1.4,2.4-2.6,4.4-3.4,6.3c-1.3,0.2-2.5,0.1-3.5-0.3
	c0-0.1,0-0.1,0-0.2c0.1-0.6,0.3-2,0.3-2.6c0,0,0.1-1.3-0.2-2.3c-0.3-1.3-1.5-2.6-3.3-2.8c-1.6-0.3-3.6,0.1-5.6,1.3
	c-3.3,2-5.4,4.3-6.7,6.1c-1.9,2.2-4.9,5.8-6.3,6.7c-1.2,0.8-3.2,1.4-3.9,1.2c-2.2-0.7,0.2-4.7,1.7-7.8c0.6-1.3,3.9-5.7,6-8.3l0.3,0
	c1.6,0.1,3.2,0.2,4.1,0.1c0.8-0.1,1.5-0.4,2.1-0.9c0.6-0.5,1.2-1.8,1.2-2.4c0-0.3-0.2-0.4-0.4-0.3c-0.2,0.1-2.5,0.2-3.8,0.1
	c-0.4,0-1,0-1.3-0.1c0.5-0.7,5.4-7.9,6.2-8.9c0.8-1,0.3-1.6,0.2-1.9c-0.1-0.5-0.6-0.7-1.7-0.7c-1.1,0-2.1,0.4-2.9,1.1
	c-0.8,0.8-6.2,8.4-7.1,10.2l-1.4,0c-1.6,0-2.8,0.2-3.6,0.4c-0.8,0.2-1.6,0.6-2.1,1.1c-0.6,0.5-1.3,1.9-1.2,2.5c0,0.1,0,0.2,0.1,0.2
	c0.1,0,0.2-0.1,0.4-0.1c0.2-0.1,0.8-0.1,1-0.2c0.6-0.2,1.5-0.3,2.7-0.3c0.4,0,1.4-0.1,1.8-0.1c-1,1.5-2.3,3.4-3.6,5.2
	c-7.4,9.3-10.5,11.2-14,13c-0.8,0.4-1.4,0.5-1.4,0.5c4.4-2.3,7.7-6.5,8-10.6c0.2-2.5-2.4-3.5-2.7-5.6c0.1-0.5,0.2-0.9,0.2-0.9
	c0.1-0.8-2.1-0.7-2.1-0.7c-2.3,0.4-2.5,3.2-2.5,3.2C44.4,36,40,36.9,37.6,36c0-0.1,0-0.2,0-0.3c0.1-0.6,0.3-2,0.3-2.6
	c0,0,0.1-1.3-0.2-2.3c-0.3-1.3-1.5-2.6-3.3-2.8c-1.6-0.3-3.6,0.1-5.6,1.3c-5.2,3.1-7.3,6.8-8.2,8.7c-0.8,1.9-1.2,4.5-0.7,6.3
	c0.6,2.1,2.5,4.6,5.5,4.6c1.1,0,3.9,0.4,7.9-4.4c1.7-2,2.4-3.1,3.5-6c2.6,1,7.4,0.7,10.6-4.1c0,0-0.1-0.4,0-0.3
	c0.5,0.7,1.8,2.4,1.1,4.5c0,0-1.4,5.2-6,6.8c-1.6,0.6-2.4-0.1-2.9-0.8c-0.4-0.6-1.8-1.6-2.8-0.8c-2.2,1.6-0.2,3.5,1.5,4.4
	c1.6,0.9,3.9,1.3,6.5,0.7c3.1-0.7,4.9-1.3,7.6-3.4c2.3-1.7,4.1-3.6,5.4-5.1c-0.3,0.9-0.5,1.7-0.7,2.3c-0.2,1-0.3,1.9-0.3,2.6
	c0.1,1.1,0.4,2,1,2.7c0.6,0.7,1.3,1,2.3,1c2.7,0,6.9-3.2,11-8c-0.2,1.2-0.2,2.4,0.1,3.4c0.6,2.1,2.5,4.6,5.5,4.6
	c1.1,0,3.9,0.4,7.9-4.4c1.8-2.1,2.5-3.2,3.6-6.3c0.9,0.3,2,0.4,3.2,0.3c-3,7.6-0.7,10.4,2.9,10.4c2.5,0,5.7-1.9,8.3-4.9
	c1.9-2.2,3-4.9,3.9-7.8c1.2,0.4,2.4,0.3,3.4,0c-0.4,0.7-0.7,1.2-0.9,1.7c-0.8,1.9-1.2,4.5-0.7,6.3c0.6,2.1,2.5,4.6,5.5,4.6
	c1.1,0,3.9,0.4,7.9-4.4c1.8-2.1,2.5-3.2,3.6-6.3c1.2,0.3,2.7,0.2,4.2-0.5c-1,1.6-2.1,3.6-3.5,5.7c-0.8,1.2-2.6,4.5-1.5,5.2
	c0.4,0.3,1.4,0.2,1.9,0c1-0.4,2.2-2.1,3-3.4c1.5-2.3,3.6-7.6,7.5-10.5c3-2,6-2.9,7.3-1.3c1,1.3-1.3,3.9-2.6,5.6
	c-1.3,1.7-2.7,3.8-3.6,5.6c-1.1,2.6,0.4,4.1,2.1,4.1c3.2,0.1,8.4-4.5,10.7-6.7C153,40,151.6,38.9,150.7,39.7 M35.4,32.1
	c0.6,0.4,0.6,1.2,0.3,2.6c-0.7-0.7-1.7-1.7-2.2-2.7C34.3,31.7,35.2,31.8,35.4,32.1 M31.2,42c-1.5,1.4-3.3,2.2-4.4,2.2
	c-1.8,0-2.7-1.1-2.9-2.6c-0.4-3.4,3.7-7.1,6.8-8.7c1,1.7,2.4,3.2,3.9,4.4C33.7,39.4,32.6,40.7,31.2,42 M86.6,32.1
	c0.6,0.4,0.6,1.2,0.4,2.6c-0.7-0.7-1.7-1.7-2.3-2.7C85.4,31.7,86.3,31.8,86.6,32.1 M82.4,42c-1.5,1.4-3.3,2.2-4.4,2.2
	c-1.8,0-2.7-1.1-2.9-2.6c-0.5-3.3,3.6-7,6.8-8.7c1.1,1.7,2.5,3.1,4.1,4.1C84.9,39.4,83.8,40.7,82.4,42 M105,23.1
	c3.1-4.2,6-6.8,7-6.8c0.2,0,0.3,0.1,0.4,0.3c0.1,0.3-0.6,2.5-4.1,6.9c-5.6,6.8-8.9,9.5-10,10.4C100.2,30.3,101.9,27.4,105,23.1
	 M123.7,32.1c0.6,0.4,0.6,1.2,0.3,2.6c-0.8-0.7-1.8-1.6-2.4-2.6C122.4,31.7,123.4,31.8,123.7,32.1 M119.5,42
	c-1.5,1.4-3.3,2.2-4.4,2.2c-1.8,0-2.7-1.1-2.9-2.6c-0.4-3.3,3.6-7,6.7-8.6c1.2,1.7,2.5,3.1,4.1,4.2C122,39.4,120.9,40.7,119.5,42"/>
<path class="st0" d="M16.1,30.7c2.7-0.6,5.8-1.5,9.6-2.7c7.6-2.6,18.5-8.7,19.9-15.7c1.2-6.1-3.7-10.9-9.2-11.6
	C31.7,0.1,23.8-0.4,5,10.8c0,0-3.3,1.9-3.6,2.3c-0.3,0.5-1,3.7-0.9,6.2c0,0-0.4,2.9,1.4,1.6c0,0,15.9-12.5,29.4-14.7
	c7-1.1,13.4,2.9,8.9,9.1c-4.3,6-11.1,8.9-21.6,11.7c3.4-5.4,6.7-10.6,6.7-10.6c1.6-3-0.5-5.3-2.2-4.5c-0.6,0.3-8.2,12.4-10.7,16.5
	c-2.3,0.2-4.7,0.3-6.5,0.4C3.1,28.8,2.1,31,5,31.5c1.4,0.2,3,0.3,5.2,0.1L3.9,41.9C1.5,46.1,2,47.7,2,47.7c0.6,3.6,3.8,0.9,4.4,0.5
	c1.2-0.9,3.1-4.4,3.1-4.4c0.8-1.9,0.5-2.2,0.5-2.2S12.6,36.6,16.1,30.7"/>
<path class="st0" d="M150.7,39.7c-1.9,1.7-6.1,4.7-7.4,5c-1.6,0.3-1.4-0.7-1-1.4c1-2.1,4.1-5.1,6.6-9.3c1.5-2.5,1.6-5-1.4-5.4
	c-2.5-0.3-4.9,0.4-8.5,2.3c-0.1,0.1-0.2,0.1-0.3,0.2c-0.4,0.2-0.7,0.1-0.5-0.3c0.1-0.1,0.2-0.3,0.3-0.4c0.1-0.2,0.2-0.6,0.2-0.8
	c0-0.4-0.1-0.7-0.4-0.9c-0.4-0.2-0.7-0.3-1.4-0.3c-0.9,0-2.2,0.3-2.9,1.5c-0.5,0.8-1.1,1.9-1.8,3.1c-2,2.3-4.6,3.3-6.4,2.9
	c0,0,0,0,0-0.1c0.1-0.6,0.3-2,0.3-2.6c0,0,0.1-1.3-0.2-2.3c-0.3-1.3-1.5-2.6-3.3-2.8c-1.6-0.3-3.6,0.1-5.6,1.3
	c-1.7,1-3.1,2.1-4.3,3.2c-1.6,1.2-2.4,1.8-3.8,1.5c-1.8-0.4-2-0.7-2.3-1.2c-0.3-0.4-0.5-0.8-1.9,0.4c-1.5,1.2-1.1,2-1.1,2
	c0.1,0.1-1.3,3-2.9,5.2c-1,1.4-2.1,2.3-3.2,3c-1.4,0.9-2.4,1-2.9,0.3c-0.7-1.2,0.5-3.2,2.1-6.8c3.5-1.5,7.8-6.1,10-8.1
	c6.8-6.3,8.5-10.5,8.5-14c0-1.8-1.7-2.6-2.8-2.6c-4.2,0.2-8.7,4.3-16.9,17.8c-1.4,2.4-2.6,4.4-3.4,6.3c-1.3,0.2-2.5,0.1-3.5-0.3
	c0-0.1,0-0.1,0-0.2c0.1-0.6,0.3-2,0.3-2.6c0,0,0.1-1.3-0.2-2.3c-0.3-1.3-1.5-2.6-3.3-2.8c-1.6-0.3-3.6,0.1-5.6,1.3
	c-3.3,2-5.4,4.3-6.7,6.1c-1.9,2.2-4.9,5.8-6.3,6.7c-1.2,0.8-3.2,1.4-3.9,1.2c-2.2-0.7,0.2-4.7,1.7-7.8c0.6-1.3,3.9-5.7,6-8.3l0.3,0
	c1.6,0.1,3.2,0.2,4.1,0.1c0.8-0.1,1.5-0.4,2.1-0.9c0.6-0.5,1.2-1.8,1.2-2.4c0-0.3-0.2-0.4-0.4-0.3c-0.2,0.1-2.5,0.2-3.8,0.1
	c-0.4,0-1,0-1.3-0.1c0.5-0.7,5.4-7.9,6.2-8.9c0.8-1,0.3-1.6,0.2-1.9c-0.1-0.5-0.6-0.7-1.7-0.7c-1.1,0-2.1,0.4-2.9,1.1
	c-0.8,0.8-6.2,8.4-7.1,10.2l-1.4,0c-1.6,0-2.8,0.2-3.6,0.4c-0.8,0.2-1.6,0.6-2.1,1.1c-0.6,0.5-1.3,1.9-1.2,2.5c0,0.1,0,0.2,0.1,0.2
	c0.1,0,0.2-0.1,0.4-0.1c0.2-0.1,0.8-0.1,1-0.2c0.6-0.2,1.5-0.3,2.7-0.3c0.4,0,1.4-0.1,1.8-0.1c-1,1.5-2.3,3.4-3.6,5.2
	c-7.4,9.3-10.5,11.2-14,13c-0.8,0.4-1.4,0.5-1.4,0.5c4.4-2.3,7.7-6.5,8-10.6c0.2-2.5-2.4-3.5-2.7-5.6c0.1-0.5,0.2-0.9,0.2-0.9
	c0.1-0.8-2.1-0.7-2.1-0.7c-2.3,0.4-2.5,3.2-2.5,3.2C44.4,36,40,36.9,37.6,36c0-0.1,0-0.2,0-0.3c0.1-0.6,0.3-2,0.3-2.6
	c0,0,0.1-1.3-0.2-2.3c-0.3-1.3-1.5-2.6-3.3-2.8c-1.6-0.3-3.6,0.1-5.6,1.3c-5.2,3.1-7.3,6.8-8.2,8.7c-0.8,1.9-1.2,4.5-0.7,6.3
	c0.6,2.1,2.5,4.6,5.5,4.6c1.1,0,3.9,0.4,7.9-4.4c1.7-2,2.4-3.1,3.5-6c2.6,1,7.4,0.7,10.6-4.1c0,0-0.1-0.4,0-0.3
	c0.5,0.7,1.8,2.4,1.1,4.5c0,0-1.4,5.2-6,6.8c-1.6,0.6-2.4-0.1-2.9-0.8c-0.4-0.6-1.8-1.6-2.8-0.8c-2.2,1.6-0.2,3.5,1.5,4.4
	c1.6,0.9,3.9,1.3,6.5,0.7c3.1-0.7,4.9-1.3,7.6-3.4c2.3-1.7,4.1-3.6,5.4-5.1c-0.3,0.9-0.5,1.7-0.7,2.3c-0.2,1-0.3,1.9-0.3,2.6
	c0.1,1.1,0.4,2,1,2.7c0.6,0.7,1.3,1,2.3,1c2.7,0,6.9-3.2,11-8c-0.2,1.2-0.2,2.4,0.1,3.4c0.6,2.1,2.5,4.6,5.5,4.6
	c1.1,0,3.9,0.4,7.9-4.4c1.8-2.1,2.5-3.2,3.6-6.3c0.9,0.3,2,0.4,3.2,0.3c-3,7.6-0.7,10.4,2.9,10.4c2.5,0,5.7-1.9,8.3-4.9
	c1.9-2.2,3-4.9,3.9-7.8c1.2,0.4,2.4,0.3,3.4,0c-0.4,0.7-0.7,1.2-0.9,1.7c-0.8,1.9-1.2,4.5-0.7,6.3c0.6,2.1,2.5,4.6,5.5,4.6
	c1.1,0,3.9,0.4,7.9-4.4c1.8-2.1,2.5-3.2,3.6-6.3c1.2,0.3,2.7,0.2,4.2-0.5c-1,1.6-2.1,3.6-3.5,5.7c-0.8,1.2-2.6,4.5-1.5,5.2
	c0.4,0.3,1.4,0.2,1.9,0c1-0.4,2.2-2.1,3-3.4c1.5-2.3,3.6-7.6,7.5-10.5c3-2,6-2.9,7.3-1.3c1,1.3-1.3,3.9-2.6,5.6
	c-1.3,1.7-2.7,3.8-3.6,5.6c-1.1,2.6,0.4,4.1,2.1,4.1c3.2,0.1,8.4-4.5,10.7-6.7C153,40,151.6,38.9,150.7,39.7 M35.4,32.1
	c0.6,0.4,0.6,1.2,0.3,2.6c-0.7-0.7-1.7-1.7-2.2-2.7C34.3,31.7,35.2,31.8,35.4,32.1 M31.2,42c-1.5,1.4-3.3,2.2-4.4,2.2
	c-1.8,0-2.7-1.1-2.9-2.6c-0.4-3.4,3.7-7.1,6.8-8.7c1,1.7,2.4,3.2,3.9,4.4C33.7,39.4,32.6,40.7,31.2,42 M86.6,32.1
	c0.6,0.4,0.6,1.2,0.4,2.6c-0.7-0.7-1.7-1.7-2.3-2.7C85.4,31.7,86.3,31.8,86.6,32.1 M82.4,42c-1.5,1.4-3.3,2.2-4.4,2.2
	c-1.8,0-2.7-1.1-2.9-2.6c-0.5-3.3,3.6-7,6.8-8.7c1.1,1.7,2.5,3.1,4.1,4.1C84.9,39.4,83.8,40.7,82.4,42 M105,23.1
	c3.1-4.2,6-6.8,7-6.8c0.2,0,0.3,0.1,0.4,0.3c0.1,0.3-0.6,2.5-4.1,6.9c-5.6,6.8-8.9,9.5-10,10.4C100.2,30.3,101.9,27.4,105,23.1
	 M123.7,32.1c0.6,0.4,0.6,1.2,0.3,2.6c-0.8-0.7-1.8-1.6-2.4-2.6C122.4,31.7,123.4,31.8,123.7,32.1 M119.5,42
	c-1.5,1.4-3.3,2.2-4.4,2.2c-1.8,0-2.7-1.1-2.9-2.6c-0.4-3.3,3.6-7,6.7-8.6c1.2,1.7,2.5,3.1,4.1,4.2C122,39.4,120.9,40.7,119.5,42"/>
<path class="st0" d="M121.4,25.8c0,0,0.6,0.5,1.6,0c0,0,2.4-1.1,5.6-3.8c0,0,3.3-2.5-0.6-2.7c0,0-2-0.4-3.8,1.7c0,0-2.6,2.7-3.1,4.2
	C121.1,25.2,120.9,25.6,121.4,25.8"/>
<path class="st0" d="M121.4,25.8c0,0,0.6,0.5,1.6,0c0,0,2.4-1.1,5.6-3.8c0,0,3.3-2.5-0.6-2.7c0,0-2-0.4-3.8,1.7c0,0-2.6,2.7-3.1,4.2
	C121.1,25.2,120.9,25.6,121.4,25.8"/>
<rect x="-22.2" y="-28.1" class="st1" width="507" height="124"/>
<g>
	<defs>
		<rect id="SVGID_7_" x="-22.2" y="-28.1" width="507" height="124"/>
	</defs>
	<clipPath id="SVGID_2_">
		<use xlink:href="#SVGID_7_"  style="overflow:visible;"/>
	</clipPath>
</g>
</svg>
